<svg width="2560" height="400" viewBox="0 0 2560 400" fill="none" xmlns="http://www.w3.org/2000/svg">
<g clip-path="url(#clip0_1164_1910)">
<rect width="2560" height="400" fill="#191F41"/>
<path opacity="0.15" d="M1590.79 1071.58L215.685 -271.273" stroke="white" stroke-width="0.99" stroke-linecap="round" stroke-linejoin="round"/>
<path opacity="0.15" d="M1834.3 637.999L-28 162.613" stroke="white" stroke-width="0.99" stroke-linecap="round" stroke-linejoin="round"/>
<path opacity="0.15" d="M941.511 1071.58L2316.62 -271.273" stroke="white" stroke-width="0.99" stroke-linecap="round" stroke-linejoin="round"/>
<path opacity="0.15" d="M698 637.999L2560.3 162.613" stroke="white" stroke-width="0.99" stroke-linecap="round" stroke-linejoin="round"/>
<path d="M1284.92 839.214C1276.43 747.152 1210.68 669.025 1121.34 644.73C1058.79 627.73 996.181 610.964 933.579 594.191C885.838 581.416 838.114 568.628 791.128 555.96L790.636 555.818C744.681 539.273 720.6 516.551 707.481 477.321C691.218 428.734 708.089 376.6 750.457 344.502C788.693 315.529 844.06 313.949 885.102 340.658C928.139 368.657 948.088 419.228 935.937 469.482C932.727 482.806 928.016 500.78 924.308 514.047C919.209 532.27 928.399 551.668 945.69 559.147L972.795 566.627C986.055 569.728 994.476 570.102 1004.37 565.4C1014.29 560.687 1021.69 551.901 1024.64 541.314C1028.77 526.551 1034.07 507.13 1038.41 487.887C1051.52 429.807 1040.26 368.563 1006.93 318.078C973.441 267.069 922.567 232.869 863.692 221.772C802.546 210.265 741.179 223.545 690.883 259.192C641.475 294.22 609.241 346.422 600.11 406.176C592.145 458.369 602.831 509.411 627.506 552.149C656.152 601.765 703.648 640.179 762.704 656.149C811.357 669.293 860.025 682.342 908.708 695.388L915.689 697.257C975.004 713.159 1034.33 729.059 1093.61 745.163C1135.19 756.433 1163.09 783.483 1176.48 825.569C1191.51 872.68 1174.13 924.987 1133.26 955.713C1093.81 985.389 1039.17 986.926 997.308 959.539C954.985 931.812 934.791 880.536 947.134 831.903C951.288 815.533 954.846 802.873 959.434 786.764C962.413 776.318 960.726 764.99 954.924 755.922C949.08 746.783 939.591 740.568 928.871 738.877L902.361 731.657C883.764 728.71 865.85 739.255 860.391 757.24C854.145 777.842 847.726 800.002 843.104 822.523C832.819 872.703 841.532 922.397 869.263 970.684C921.492 1061.15 1030.41 1104.23 1128.25 1073.13C1230.19 1040.73 1294.61 944.544 1284.93 839.212L1284.92 839.214Z" fill="url(#paint0_linear_1164_1910)"/>
<path d="M1844.06 123.289C1914.44 100.543 1963.92 35.5401 1967.24 -38.4505C1969.56 -90.2549 1971.69 -142.062 1973.83 -193.867C1975.44 -233.37 1977.07 -272.863 1978.74 -311.758L1978.76 -312.167C1983.63 -350.936 1997.15 -373.712 2025.48 -390.819C2060.56 -412.02 2104.21 -407.975 2136.68 -380.521C2165.99 -355.745 2176.92 -312.802 2163.25 -276.088C2148.93 -237.592 2112.95 -213.167 2071.59 -213.855C2060.63 -214.029 2045.77 -214.56 2034.77 -215.132C2019.65 -215.923 2006.11 -205.354 2003.3 -190.547L2002.21 -168.079C2002.11 -157.185 2003.29 -150.546 2008.69 -143.642C2014.11 -136.726 2022.26 -132.492 2031.04 -132.04C2043.29 -131.4 2059.38 -130.664 2075.16 -130.638C2122.79 -130.571 2168.63 -150.082 2202.21 -184.94C2236.16 -220.011 2253.95 -265.711 2252.31 -313.611C2250.59 -363.357 2229.48 -408.937 2192.85 -441.958C2156.86 -474.395 2110.47 -490.42 2062.22 -487.089C2020.09 -484.17 1982.11 -466.894 1953.07 -440.151C1919.35 -409.105 1897.68 -365.304 1895.55 -316.409C1893.81 -276.129 1892.14 -235.853 1890.48 -195.568L1890.24 -189.791C1888.21 -140.705 1886.18 -91.6119 1883.99 -42.5181C1882.47 -8.08491 1866.24 18.4301 1835.73 36.2503C1801.58 56.2228 1757.71 51.8169 1726.57 25.2931C1696.5 -0.310649 1685.74 -42.6965 1699.79 -80.1662C1714.02 -118.058 1750.51 -142.797 1790.64 -141.675C1804.15 -141.298 1814.65 -140.737 1828.03 -139.975C1836.7 -139.478 1845.25 -142.777 1851.31 -148.894C1857.43 -155.056 1860.62 -163.551 1860.06 -172.215L1861.06 -194.173C1860.1 -209.206 1848.73 -221.344 1833.74 -222.457C1816.56 -223.727 1798.14 -224.858 1779.75 -224.524C1738.78 -223.77 1701.51 -208.269 1668.67 -178.169C1607.2 -121.564 1592.63 -28.9989 1634.03 41.9308C1677.17 115.833 1763.53 149.283 1844.06 123.292L1844.06 123.289Z" fill="url(#paint1_linear_1164_1910)"/>
<path d="M1760.5 198.813C1761.01 211.316 1751.31 221.897 1738.82 222.417C1751.31 221.897 1761.88 231.605 1762.4 244.108C1761.88 231.605 1771.58 221.024 1784.08 220.504C1771.58 221.024 1761.01 211.316 1760.5 198.813Z" fill="white" stroke="black" stroke-width="1.5" stroke-linecap="round" stroke-linejoin="round"/>
<path d="M1737.89 158.366C1735.32 156.138 1735.04 152.243 1737.27 149.666C1739.5 147.089 1743.39 146.806 1745.97 149.034C1748.54 151.262 1748.82 155.157 1746.59 157.734C1744.36 160.311 1740.47 160.594 1737.89 158.366Z" fill="#FEDC89" stroke="black" stroke-width="1.5" stroke-linecap="round" stroke-linejoin="round"/>
<path d="M1825.08 195.741C1827.32 203.318 1822.99 211.256 1815.42 213.47C1822.99 211.229 1830.92 215.562 1833.13 223.141C1830.89 215.564 1835.22 207.626 1842.79 205.412C1835.22 207.654 1827.29 203.321 1825.08 195.741Z" fill="white" stroke="black" stroke-width="1.35" stroke-linecap="round" stroke-linejoin="round"/>
<g clip-path="url(#clip1_1164_1910)">
<path d="M643.572 174.702C644.196 174.792 644.841 174.666 645.412 174.303C646.663 173.5 647.031 171.826 646.229 170.574L623.77 129.281C622.967 128.029 621.293 127.662 620.041 128.464C618.789 129.266 618.422 130.941 619.224 132.193L641.683 173.486C642.12 174.176 642.824 174.595 643.572 174.702Z" fill="#FF8C73" stroke="black" stroke-width="1.5" stroke-linecap="round" stroke-linejoin="round"/>
<path d="M637.884 186.269C638.837 186.406 639.838 186.022 640.45 185.183C641.322 183.98 641.065 182.289 639.854 181.415L589.458 148.077C588.257 147.196 586.564 147.462 585.69 148.673C584.818 149.875 585.075 151.567 586.286 152.441L636.673 185.777C637.043 186.048 637.457 186.208 637.875 186.268L637.884 186.269Z" fill="#FF8C73" stroke="black" stroke-width="1.5" stroke-linecap="round" stroke-linejoin="round"/>
<path d="M632.027 194.511C633.435 194.713 634.778 193.779 635.054 192.363C635.345 190.905 634.396 189.478 632.937 189.186L599.064 186.052C597.614 185.762 596.178 186.711 595.887 188.169C595.596 189.628 596.546 191.055 598.004 191.346L631.877 194.48C631.922 194.487 631.975 194.495 632.02 194.501L632.027 194.511Z" fill="#FF8C73" stroke="black" stroke-width="1.5" stroke-linecap="round" stroke-linejoin="round"/>
<path d="M583.145 163.303C581.437 168.05 583.906 173.269 588.653 174.977C583.906 173.269 578.687 175.738 576.979 180.484C578.687 175.738 576.218 170.519 571.471 168.811C576.218 170.519 581.437 168.05 583.145 163.303Z" fill="white" stroke="black" stroke-width="1.5" stroke-linecap="round" stroke-linejoin="round"/>
</g>
<path d="M988.897 178.818C946.565 189.425 916.049 226.948 914.753 270.702C914.494 279.345 901.044 279.385 901.303 270.702C902.778 221.107 937.14 177.901 985.331 165.829C993.729 163.725 997.316 176.705 988.907 178.808L988.897 178.818Z" fill="white" stroke="#291101" stroke-width="1.5" stroke-linecap="round" stroke-linejoin="round"/>
<path d="M904.562 309.519L902.61 296.432C902.076 292.868 903.474 289.244 907.04 288.205C910.052 287.334 914.303 289.284 914.838 292.878L916.79 305.965C917.324 309.529 915.926 313.153 912.36 314.192C909.348 315.063 905.097 313.113 904.562 309.519Z" fill="white" stroke="#291101" stroke-width="1.5" stroke-linecap="round" stroke-linejoin="round"/>
<g clip-path="url(#clip2_1164_1910)">
<path d="M1739.26 305.487L1743.9 308.236L1706.72 371.011L1702.07 368.262L1739.26 305.487Z" fill="#FEDC89" stroke="#291101" stroke-width="2.16" stroke-linecap="round" stroke-linejoin="round"/>
<path d="M1712.06 359.22L1710.58 358.347C1707.09 356.28 1702.59 357.433 1700.52 360.921L1691.17 376.703L1705.28 385.06L1714.63 369.278C1716.7 365.789 1715.54 361.287 1712.06 359.22Z" fill="#FEDC89" stroke="#291101" stroke-width="2.16" stroke-linecap="round" stroke-linejoin="round"/>
<path d="M1621 327.948C1652.44 322.023 1678.5 326.922 1698.56 343.989L1722.85 302.977L1658.41 264.801L1620.99 327.951L1621 327.948Z" fill="#465C9F" stroke="#291101" stroke-width="2.16" stroke-linecap="round" stroke-linejoin="round"/>
<path d="M1621 327.952C1611.1 297.536 1594.27 277.021 1569.69 267.62L1593.98 226.608L1658.42 264.784L1621 327.934L1621 327.952Z" fill="#89A5EF" stroke="#291101" stroke-width="2.16" stroke-linecap="round" stroke-linejoin="round"/>
<path d="M1760.27 307.079L1685.78 218.586L1571.16 190.127L1650.4 280.181L1760.27 307.079Z" fill="#89A5EF" stroke="#291101" stroke-width="2.16" stroke-linecap="round" stroke-linejoin="round"/>
<path d="M1571.16 190.126L1567.03 197.07L1646.27 287.142L1756.16 314.037L1760.27 307.079L1650.4 280.18L1571.16 190.126Z" fill="white" stroke="#291101" stroke-width="2.16" stroke-linecap="round" stroke-linejoin="round"/>
</g>
<g clip-path="url(#clip3_1164_1910)">
<path d="M769.987 150.754C751.629 157.622 717.385 164.644 719.668 181.502L717.456 182.498C717.456 182.498 707.382 175.651 685.06 185.827C662.739 196.003 661.984 199.422 661.984 199.422L703.015 213.625L770.12 190.751L769.994 150.74L769.987 150.754Z" fill="#FFFEFF" stroke="#291101" stroke-width="2.025" stroke-miterlimit="10"/>
<path d="M808.964 230.978L770.218 264.941L731.172 179.374L775.714 145.352L810.819 222.347C812.173 225.33 811.432 228.831 808.964 230.978Z" fill="#FEA5A5" stroke="#291101" stroke-width="1.35" stroke-miterlimit="10"/>
<path d="M696.843 280.721L750.601 273.782L711.556 188.215L661.494 198.119C658.917 198.629 657.517 201.382 658.589 203.755L692.592 278.362C693.338 279.991 695.047 280.947 696.829 280.713L696.843 280.721Z" fill="#FEA5A5" stroke="#291101" stroke-width="1.35" stroke-miterlimit="10"/>
<path d="M708.497 187.937L743.942 265.683C746.897 272.186 754.433 275.198 760.99 272.651C761.206 272.558 761.437 272.472 761.66 272.364C768.393 269.332 771.352 261.419 768.295 254.715L732.836 176.961L708.497 187.937Z" fill="#FEEFEB" stroke="#291101" stroke-width="1.35" stroke-miterlimit="10"/>
<path d="M708.532 187.793L743.977 265.54C746.932 272.043 754.468 275.054 761.025 272.507L720.031 182.61L708.532 187.793Z" fill="#FF8C73" stroke="#291101" stroke-width="1.35" stroke-miterlimit="10"/>
<path d="M778.918 169L749.154 192.637" stroke="#291101" stroke-width="1.62" stroke-miterlimit="10"/>
</g>
<path d="M1453.01 319L1454.69 328L1463.78 329.17L1455.74 333.565L1457.42 342.565L1450.77 336.265L1442.73 340.66L1446.65 332.38L1440 326.095L1449.08 327.265L1453.01 319Z" fill="#FEDC89" stroke="#291101" stroke-width="1.5" stroke-linecap="round" stroke-linejoin="round"/>
<path d="M1548.23 43.6445L1550.24 54.4445L1561.15 55.8485L1551.5 61.1225L1553.52 71.9225L1545.55 64.3625L1535.9 69.6365L1540.6 59.7005L1532.62 52.1585L1543.51 53.5625L1548.23 43.6445Z" fill="#FEDC89" stroke="#291101" stroke-width="1.8" stroke-linecap="round" stroke-linejoin="round"/>
<path d="M1023.01 212L1024.69 221L1033.78 222.17L1025.74 226.565L1027.42 235.565L1020.77 229.265L1012.73 233.66L1016.65 225.38L1010 219.095L1019.08 220.265L1023.01 212Z" fill="#FEDC89" stroke="#291101" stroke-width="1.485" stroke-linecap="round" stroke-linejoin="round"/>
<path d="M739.5 98C753.031 98 764 87.031 764 73.5C764 59.969 753.031 49 739.5 49C725.969 49 715 59.969 715 73.5C715 87.031 725.969 98 739.5 98Z" fill="white" stroke="#291101" stroke-width="0.99" stroke-linecap="round" stroke-linejoin="round"/>
<path d="M736.09 84.6399L753.284 72.0181L733.75 63.4453L736.09 84.6399Z" fill="#FF8C73" stroke="#291101" stroke-width="0.99" stroke-linecap="round" stroke-linejoin="round"/>
<g clip-path="url(#clip4_1164_1910)">
<path d="M935.322 90.3508C936.231 94.8812 933.288 99.2897 928.758 100.199C924.227 101.108 919.819 98.1651 918.91 93.6348C918.001 89.1044 920.943 84.6959 925.474 83.787" fill="white"/>
<path d="M935.322 90.3508C936.231 94.8812 933.288 99.2897 928.758 100.199C924.227 101.108 919.819 98.1651 918.91 93.6348C918.001 89.1044 920.943 84.6959 925.474 83.787" stroke="#291101" stroke-width="0.99" stroke-linecap="round" stroke-linejoin="round"/>
<path d="M946.704 97.6786C953.776 93.4824 956.108 84.3475 951.912 77.2751C947.716 70.2027 938.581 67.8711 931.508 72.0672C924.436 76.2634 922.104 85.3983 926.3 92.4707C930.497 99.5431 939.632 101.875 946.704 97.6786Z" fill="white" stroke="#291101" stroke-width="0.99" stroke-linecap="round" stroke-linejoin="round"/>
<path d="M936.38 72.4789C935.765 67.9139 937.856 63.208 942.07 60.7077C947.686 57.3757 954.944 59.2208 958.281 64.8453C961.618 70.4698 959.768 77.7186 954.143 81.0557C952.036 82.3059 949.706 82.8277 947.428 82.6913" fill="white"/>
<path d="M936.38 72.4789C935.765 67.9139 937.856 63.208 942.07 60.7077C947.686 57.3757 954.944 59.2208 958.281 64.8453C961.618 70.4698 959.768 77.7186 954.143 81.0557C952.036 82.3059 949.706 82.8277 947.428 82.6913" stroke="#291101" stroke-width="0.99" stroke-linecap="round" stroke-linejoin="round"/>
<path d="M911.39 101.654C913.446 100.434 914.125 97.7777 912.904 95.721C911.684 93.6644 909.028 92.9863 906.971 94.2066C904.914 95.4268 904.236 98.0833 905.457 100.14C906.677 102.197 909.333 102.875 911.39 101.654Z" fill="white" stroke="#291101" stroke-width="0.99" stroke-linecap="round" stroke-linejoin="round"/>
<path d="M977.955 68.1368C980.011 66.9165 980.689 64.2601 979.469 62.2034C978.249 60.1468 975.593 59.4688 973.536 60.689C971.479 61.9092 970.801 64.5657 972.021 66.6223C973.242 68.679 975.898 69.357 977.955 68.1368Z" fill="white" stroke="#291101" stroke-width="0.99" stroke-linecap="round" stroke-linejoin="round"/>
</g>
<g clip-path="url(#clip5_1164_1910)">
<path d="M1887.75 96.1599L1811.39 77.6974C1808.7 77.0485 1806 78.6983 1805.35 81.3823L1792.7 133.724C1792.05 136.408 1793.7 139.11 1796.38 139.759L1872.74 158.222C1875.43 158.871 1878.13 157.221 1878.78 154.537L1891.43 102.195C1892.08 99.5107 1890.43 96.8088 1887.75 96.1599Z" fill="white" stroke="#291101" stroke-width="1.35" stroke-linecap="round" stroke-linejoin="round"/>
<path d="M1877.06 115.589L1851.84 109.491C1850.26 109.109 1848.67 110.08 1848.29 111.661C1847.9 113.242 1848.88 114.833 1850.46 115.215L1875.68 121.313C1877.26 121.695 1878.85 120.724 1879.23 119.143C1879.62 117.562 1878.64 115.971 1877.06 115.589Z" fill="#A486E9" stroke="#291101" stroke-width="0.9" stroke-linecap="round" stroke-linejoin="round"/>
<path d="M1874.62 125.695L1849.4 119.597C1847.82 119.215 1846.23 120.187 1845.84 121.767C1845.46 123.348 1846.43 124.939 1848.01 125.322L1873.24 131.42C1874.82 131.802 1876.41 130.83 1876.79 129.249C1877.17 127.669 1876.2 126.077 1874.62 125.695Z" fill="#A486E9" stroke="#291101" stroke-width="0.9" stroke-linecap="round" stroke-linejoin="round"/>
<path d="M1858.1 136.635L1845.99 133.707C1844.41 133.324 1842.81 134.296 1842.43 135.877C1842.05 137.458 1843.02 139.049 1844.6 139.431L1856.71 142.359C1858.3 142.741 1859.89 141.77 1860.27 140.189C1860.65 138.608 1859.68 137.017 1858.1 136.635Z" fill="#563488" stroke="#291101" stroke-width="0.9" stroke-linecap="round" stroke-linejoin="round"/>
<path d="M1839.83 106.587L1810.93 99.6006L1803.63 129.809L1832.53 136.796L1839.83 106.587Z" fill="#FF8E73" stroke="#291101" stroke-width="0.9" stroke-miterlimit="10"/>
<path d="M1810.93 99.5977L1832.52 136.799" stroke="#291101" stroke-width="0.9" stroke-linecap="round" stroke-linejoin="round"/>
<path d="M1803.63 129.814L1839.82 106.582" stroke="#291101" stroke-width="0.9" stroke-linecap="round" stroke-linejoin="round"/>
<path d="M1887.75 96.1575L1811.38 77.693C1808.7 77.0457 1806 78.694 1805.35 81.3716L1803.43 89.3119L1889.52 110.124L1891.44 102.184C1892.09 99.498 1890.44 96.7985 1887.75 96.1491L1887.75 96.1575Z" fill="#A486E9" stroke="#291101" stroke-width="1.35" stroke-linecap="round" stroke-linejoin="round"/>
</g>
<path d="M1071.29 150H1066L1058.37 138.624L1055.96 140.532V150H1051.35V124.296H1055.96V136.392C1056.44 135.792 1056.93 135.18 1057.43 134.556C1057.94 133.932 1058.44 133.308 1058.94 132.684L1065.89 124.296H1071.11L1061.68 135.6L1071.29 150ZM1072.46 142.26V138.444H1081.6V142.26H1072.46ZM1097.17 150L1090.11 128.94H1089.97C1089.99 129.42 1090.03 130.104 1090.07 130.992C1090.12 131.856 1090.16 132.804 1090.18 133.836C1090.23 134.844 1090.25 135.792 1090.25 136.68V150H1086.11V124.296H1092.52L1099.29 144.492H1099.43L1106.49 124.296H1112.9V150H1108.51V136.464C1108.51 135.648 1108.52 134.76 1108.54 133.8C1108.59 132.816 1108.63 131.892 1108.65 131.028C1108.7 130.14 1108.73 129.456 1108.76 128.976H1108.61L1101.27 150H1097.17ZM1142.44 137.112C1142.44 139.104 1142.19 140.916 1141.69 142.548C1141.21 144.156 1140.46 145.548 1139.46 146.724C1138.47 147.9 1137.21 148.8 1135.68 149.424C1134.16 150.048 1132.39 150.36 1130.35 150.36C1128.28 150.36 1126.48 150.048 1124.95 149.424C1123.44 148.776 1122.19 147.876 1121.2 146.724C1120.22 145.548 1119.48 144.144 1118.97 142.512C1118.49 140.88 1118.25 139.068 1118.25 137.076C1118.25 134.412 1118.68 132.096 1119.55 130.128C1120.44 128.16 1121.77 126.636 1123.54 125.556C1125.34 124.452 1127.62 123.9 1130.38 123.9C1133.1 123.9 1135.34 124.452 1137.12 125.556C1138.89 126.636 1140.22 128.172 1141.11 130.164C1142 132.132 1142.44 134.448 1142.44 137.112ZM1123.11 137.112C1123.11 139.056 1123.36 140.724 1123.87 142.116C1124.4 143.508 1125.19 144.576 1126.24 145.32C1127.32 146.064 1128.69 146.436 1130.35 146.436C1132.05 146.436 1133.43 146.064 1134.49 145.32C1135.54 144.576 1136.32 143.508 1136.83 142.116C1137.33 140.724 1137.58 139.056 1137.58 137.112C1137.58 134.208 1137.02 131.928 1135.89 130.272C1134.76 128.616 1132.93 127.788 1130.38 127.788C1128.7 127.788 1127.32 128.16 1126.24 128.904C1125.19 129.648 1124.4 130.716 1123.87 132.108C1123.36 133.5 1123.11 135.168 1123.11 137.112ZM1170.81 137.112C1170.81 139.104 1170.56 140.916 1170.06 142.548C1169.58 144.156 1168.83 145.548 1167.83 146.724C1166.84 147.9 1165.58 148.8 1164.05 149.424C1162.53 150.048 1160.76 150.36 1158.72 150.36C1156.65 150.36 1154.85 150.048 1153.32 149.424C1151.81 148.776 1150.56 147.876 1149.57 146.724C1148.59 145.548 1147.85 144.144 1147.34 142.512C1146.86 140.88 1146.62 139.068 1146.62 137.076C1146.62 134.412 1147.05 132.096 1147.92 130.128C1148.81 128.16 1150.14 126.636 1151.91 125.556C1153.71 124.452 1155.99 123.9 1158.75 123.9C1161.47 123.9 1163.71 124.452 1165.49 125.556C1167.26 126.636 1168.59 128.172 1169.48 130.164C1170.37 132.132 1170.81 134.448 1170.81 137.112ZM1151.48 137.112C1151.48 139.056 1151.73 140.724 1152.24 142.116C1152.77 143.508 1153.56 144.576 1154.61 145.32C1155.69 146.064 1157.06 146.436 1158.72 146.436C1160.42 146.436 1161.8 146.064 1162.86 145.32C1163.91 144.576 1164.69 143.508 1165.2 142.116C1165.7 140.724 1165.95 139.056 1165.95 137.112C1165.95 134.208 1165.39 131.928 1164.26 130.272C1163.13 128.616 1161.3 127.788 1158.75 127.788C1157.07 127.788 1155.69 128.16 1154.61 128.904C1153.56 129.648 1152.77 130.716 1152.24 132.108C1151.73 133.5 1151.48 135.168 1151.48 137.112ZM1187.16 127.824C1185.98 127.824 1184.94 128.04 1184.03 128.472C1183.11 128.904 1182.33 129.528 1181.69 130.344C1181.06 131.16 1180.58 132.144 1180.25 133.296C1179.93 134.448 1179.78 135.744 1179.78 137.184C1179.78 139.128 1180.04 140.796 1180.57 142.188C1181.1 143.556 1181.9 144.612 1182.98 145.356C1184.09 146.1 1185.47 146.472 1187.12 146.472C1188.23 146.472 1189.28 146.364 1190.29 146.148C1191.32 145.908 1192.4 145.596 1193.53 145.212V149.136C1192.47 149.568 1191.41 149.88 1190.33 150.072C1189.27 150.264 1188.05 150.36 1186.65 150.36C1184.01 150.36 1181.83 149.82 1180.1 148.74C1178.37 147.636 1177.09 146.1 1176.25 144.132C1175.41 142.14 1174.99 139.812 1174.99 137.148C1174.99 135.204 1175.25 133.428 1175.78 131.82C1176.33 130.212 1177.11 128.82 1178.12 127.644C1179.15 126.468 1180.43 125.556 1181.94 124.908C1183.45 124.26 1185.19 123.936 1187.16 123.936C1188.45 123.936 1189.73 124.092 1190.97 124.404C1192.25 124.692 1193.43 125.1 1194.54 125.628L1192.95 129.408C1192.04 129 1191.09 128.64 1190.11 128.328C1189.15 127.992 1188.17 127.824 1187.16 127.824ZM1206.37 122.784H1225.99V126.564H1206.37V122.784ZM1216.19 127.608C1220.98 127.608 1224.37 130.092 1224.37 133.764C1224.37 137.436 1220.98 139.884 1216.19 139.884C1211.37 139.884 1207.99 137.436 1207.99 133.764C1207.99 130.092 1211.37 127.608 1216.19 127.608ZM1216.19 131.208C1214.03 131.208 1212.59 132.072 1212.59 133.764C1212.59 135.42 1214.03 136.284 1216.19 136.284C1218.32 136.284 1219.79 135.42 1219.79 133.764C1219.79 132.072 1218.32 131.208 1216.19 131.208ZM1227.82 119.868H1232.61V140.784H1227.82V119.868ZM1231.28 128.472H1237.04V132.36H1231.28V128.472ZM1210.36 142.152H1232.61V153.204H1227.82V145.968H1210.36V142.152ZM1213.78 119.688H1218.57V124.944H1213.78V119.688ZM1257.45 127.536H1263.78V131.424H1257.45V127.536ZM1262.52 119.868H1267.31V139.128H1262.52V119.868ZM1245.1 140.496H1267.31V152.844H1245.1V140.496ZM1262.63 144.24H1249.81V149.064H1262.63V144.24ZM1247.11 122.964H1251V125.052C1251 131.352 1248.05 137.112 1241.64 139.2L1239.23 135.42C1244.74 133.62 1247.11 129.264 1247.11 125.052V122.964ZM1248.12 122.964H1251.97V125.052C1251.97 128.94 1254.24 133.044 1259.5 134.808L1257.16 138.588C1250.97 136.536 1248.12 130.992 1248.12 125.052V122.964ZM1240.53 121.56H1258.45V125.34H1240.53V121.56ZM1272.46 136.86H1302.59V140.676H1272.46V136.86ZM1276.09 148.812H1299.2V152.628H1276.09V148.812ZM1276.09 142.908H1280.88V150.036H1276.09V142.908ZM1287.54 120.84C1294.78 120.84 1299.6 123.468 1299.6 127.716C1299.6 131.964 1294.78 134.592 1287.54 134.592C1280.27 134.592 1275.48 131.964 1275.48 127.716C1275.48 123.468 1280.27 120.84 1287.54 120.84ZM1287.54 124.656C1283.04 124.656 1280.41 125.7 1280.41 127.716C1280.41 129.768 1283.04 130.776 1287.54 130.776C1292.04 130.776 1294.67 129.768 1294.67 127.716C1294.67 125.7 1292.04 124.656 1287.54 124.656ZM1329.37 119.868H1333.91V140.748H1329.37V119.868ZM1325.3 128.076H1330.63V131.964H1325.3V128.076ZM1322.46 120.516H1326.92V139.668H1322.46V120.516ZM1305.36 123.288H1321.52V126.96H1305.36V123.288ZM1313.49 128.04C1317.67 128.04 1320.69 130.416 1320.69 133.872C1320.69 137.328 1317.67 139.668 1313.49 139.668C1309.32 139.668 1306.29 137.328 1306.29 133.872C1306.29 130.416 1309.32 128.04 1313.49 128.04ZM1313.49 131.46C1311.73 131.46 1310.54 132.324 1310.54 133.872C1310.54 135.42 1311.73 136.284 1313.49 136.284C1315.22 136.284 1316.41 135.42 1316.41 133.872C1316.41 132.324 1315.22 131.46 1313.49 131.46ZM1311.08 120.192H1315.8V125.808H1311.08V120.192ZM1322.64 141.108C1329.77 141.108 1334.09 143.268 1334.09 147.156C1334.09 151.008 1329.77 153.204 1322.64 153.204C1315.47 153.204 1311.15 151.008 1311.15 147.156C1311.15 143.268 1315.47 141.108 1322.64 141.108ZM1322.64 144.672C1318.17 144.672 1315.94 145.428 1315.94 147.156C1315.94 148.848 1318.17 149.64 1322.64 149.64C1327.07 149.64 1329.3 148.848 1329.3 147.156C1329.3 145.428 1327.07 144.672 1322.64 144.672ZM1362.63 119.868H1367.17V153.204H1362.63V119.868ZM1351.65 131.244H1357.16V135.132H1351.65V131.244ZM1355.9 120.408H1360.36V151.692H1355.9V120.408ZM1344.45 125.304H1348.05V128.724C1348.05 136.212 1346 143.664 1340.71 146.976L1337.86 143.448C1342.76 140.388 1344.45 134.412 1344.45 128.724V125.304ZM1345.53 125.304H1349.09V128.724C1349.09 134.268 1350.75 139.884 1355.57 142.692L1352.77 146.184C1347.47 143.052 1345.53 136.068 1345.53 128.724V125.304ZM1339.12 123.216H1353.99V127.068H1339.12V123.216ZM1380.87 122.784H1400.49V126.564H1380.87V122.784ZM1390.7 127.608C1395.49 127.608 1398.87 130.092 1398.87 133.764C1398.87 137.436 1395.49 139.884 1390.7 139.884C1385.88 139.884 1382.49 137.436 1382.49 133.764C1382.49 130.092 1385.88 127.608 1390.7 127.608ZM1390.7 131.208C1388.54 131.208 1387.1 132.072 1387.1 133.764C1387.1 135.42 1388.54 136.284 1390.7 136.284C1392.82 136.284 1394.3 135.42 1394.3 133.764C1394.3 132.072 1392.82 131.208 1390.7 131.208ZM1402.33 119.868H1407.12V140.784H1402.33V119.868ZM1405.78 128.472H1411.54V132.36H1405.78V128.472ZM1384.87 142.152H1407.12V153.204H1402.33V145.968H1384.87V142.152ZM1388.29 119.688H1393.08V124.944H1388.29V119.688ZM1417.44 139.848H1422.16V142.656H1435.52V139.848H1440.27V152.844H1417.44V139.848ZM1422.16 146.22V149.1H1435.52V146.22H1422.16ZM1413.92 134.412H1444.05V138.192H1413.92V134.412ZM1426.55 120.228H1430.66V121.236C1430.66 127.032 1425.69 131.82 1417.08 132.936L1415.39 129.228C1422.92 128.328 1426.55 124.62 1426.55 121.236V120.228ZM1427.34 120.228H1431.45V121.236C1431.45 124.584 1435.08 128.328 1442.57 129.228L1440.88 132.936C1432.28 131.82 1427.34 126.996 1427.34 121.236V120.228ZM1448.37 123.18H1462.73V126.96H1448.37V123.18ZM1452.65 132.72H1457.37V144.024H1452.65V132.72ZM1460.82 123.18H1465.54V125.88C1465.54 129.12 1465.54 133.152 1464.64 138.696L1459.96 138.264C1460.82 132.936 1460.82 129.084 1460.82 125.88V123.18ZM1468.38 119.868H1473.17V153.204H1468.38V119.868ZM1471.77 133.26H1477.63V137.22H1471.77V133.26ZM1447.11 146.472L1446.67 142.62C1452.54 142.62 1460.32 142.512 1466.87 141.684L1467.12 145.176C1460.39 146.328 1452.9 146.472 1447.11 146.472ZM1498.08 127.932H1504.41V131.82H1498.08V127.932ZM1503.12 119.868H1507.91V139.668H1503.12V119.868ZM1496.6 140.388C1503.66 140.388 1508.01 142.8 1508.01 146.832C1508.01 150.9 1503.66 153.24 1496.6 153.24C1489.55 153.24 1485.19 150.9 1485.19 146.832C1485.19 142.8 1489.55 140.388 1496.6 140.388ZM1496.6 144.024C1492.28 144.024 1489.98 144.924 1489.98 146.832C1489.98 148.704 1492.28 149.604 1496.6 149.604C1500.96 149.604 1503.26 148.704 1503.26 146.832C1503.26 144.924 1500.96 144.024 1496.6 144.024ZM1487.71 123.216H1491.6V125.304C1491.6 131.676 1488.65 137.508 1482.27 139.668L1479.83 135.888C1485.33 134.016 1487.71 129.588 1487.71 125.304V123.216ZM1488.72 123.216H1492.57V125.304C1492.57 129.228 1494.84 133.296 1500.09 135.06L1497.75 138.84C1491.56 136.788 1488.72 131.244 1488.72 125.304V123.216ZM1481.12 121.884H1499.05V125.7H1481.12V121.884Z" fill="white"/>
<path d="M1059.77 187.784H1061.1V202.248H1059.77V187.784ZM1055.53 189.336H1056.84C1056.84 193.528 1054.96 197.192 1050.12 199.56L1049.42 198.488C1053.6 196.472 1055.53 193.4 1055.53 189.56V189.336ZM1050.08 189.336H1056.11V190.424H1050.08V189.336ZM1069.6 189.144H1070.78V189.576C1070.78 192.024 1068.17 193.752 1065.21 194.2L1064.72 193.128C1067.28 192.792 1069.6 191.352 1069.6 189.576V189.144ZM1070.16 189.144H1071.32V189.576C1071.32 191.336 1073.66 192.792 1076.22 193.128L1075.71 194.2C1072.76 193.752 1070.16 192.024 1070.16 189.576V189.144ZM1065.12 188.488H1075.82V189.56H1065.12V188.488ZM1065.61 200.84H1075.55V201.928H1065.61V200.84ZM1065.61 197.848H1066.94V201.272H1065.61V197.848ZM1063.92 195.592H1077.04V196.664H1063.92V195.592ZM1069.79 193.192H1071.1V196.024H1069.79V193.192ZM1084.47 193.4H1087.21V194.504H1084.47V193.4ZM1089.63 187.784H1090.91V202.248H1089.63V187.784ZM1086.76 188.088H1088.03V201.528H1086.76V188.088ZM1081.87 188.984C1083.74 188.984 1084.95 190.92 1084.95 194.024C1084.95 197.128 1083.74 199.064 1081.87 199.064C1079.99 199.064 1078.79 197.128 1078.79 194.024C1078.79 190.92 1079.99 188.984 1081.87 188.984ZM1081.87 190.216C1080.73 190.216 1080.01 191.688 1080.01 194.024C1080.01 196.36 1080.73 197.832 1081.87 197.832C1083.02 197.832 1083.74 196.36 1083.74 194.024C1083.74 191.688 1083.02 190.216 1081.87 190.216ZM1097.41 195.112H1110.53V196.2H1097.41V195.112ZM1103.4 195.8H1104.74V199.128H1103.4V195.8ZM1099.08 200.824H1109.08V201.928H1099.08V200.824ZM1099.08 197.704H1100.41V201.128H1099.08V197.704ZM1103.96 188.136C1107.01 188.136 1109.03 189.256 1109.03 191.048C1109.03 192.84 1107.01 193.96 1103.96 193.96C1100.89 193.96 1098.89 192.84 1098.89 191.048C1098.89 189.256 1100.89 188.136 1103.96 188.136ZM1103.96 189.224C1101.75 189.224 1100.29 189.928 1100.29 191.048C1100.29 192.184 1101.75 192.872 1103.96 192.872C1106.17 192.872 1107.62 192.184 1107.62 191.048C1107.62 189.928 1106.17 189.224 1103.96 189.224ZM1118.69 189.864H1123.11V190.952H1118.69V189.864ZM1118.69 193.192H1123.11V194.296H1118.69V193.192ZM1116.05 188.632C1118.18 188.632 1119.78 190.072 1119.78 192.072C1119.78 194.088 1118.18 195.512 1116.05 195.512C1113.91 195.512 1112.32 194.088 1112.32 192.072C1112.32 190.072 1113.91 188.632 1116.05 188.632ZM1116.05 189.768C1114.64 189.768 1113.6 190.712 1113.6 192.072C1113.6 193.432 1114.64 194.376 1116.05 194.376C1117.46 194.376 1118.52 193.432 1118.52 192.072C1118.52 190.712 1117.46 189.768 1116.05 189.768ZM1122.68 187.784H1124V196.344H1122.68V187.784ZM1119.25 196.68C1122.23 196.68 1124.07 197.704 1124.07 199.448C1124.07 201.208 1122.23 202.216 1119.25 202.216C1116.26 202.216 1114.42 201.208 1114.42 199.448C1114.42 197.704 1116.26 196.68 1119.25 196.68ZM1119.25 197.736C1117.06 197.736 1115.73 198.376 1115.73 199.448C1115.73 200.536 1117.06 201.176 1119.25 201.176C1121.43 201.176 1122.76 200.536 1122.76 199.448C1122.76 198.376 1121.43 197.736 1119.25 197.736ZM1136.78 195.016H1138.11V197.544H1136.78V195.016ZM1130.91 194.552H1143.98V195.624H1130.91V194.552ZM1137.44 197.144C1140.54 197.144 1142.4 198.056 1142.4 199.688C1142.4 201.304 1140.54 202.216 1137.44 202.216C1134.33 202.216 1132.48 201.304 1132.48 199.688C1132.48 198.056 1134.33 197.144 1137.44 197.144ZM1137.44 198.168C1135.18 198.168 1133.82 198.712 1133.82 199.688C1133.82 200.648 1135.18 201.192 1137.44 201.192C1139.71 201.192 1141.05 200.648 1141.05 199.688C1141.05 198.712 1139.71 198.168 1137.44 198.168ZM1136.59 188.968H1137.77V189.4C1137.77 191.736 1135.12 193.304 1132.13 193.672L1131.65 192.616C1134.24 192.344 1136.59 191.048 1136.59 189.4V188.968ZM1137.15 188.968H1138.32V189.4C1138.32 191.048 1140.67 192.344 1143.26 192.616L1142.78 193.672C1139.79 193.304 1137.15 191.736 1137.15 189.4V188.968ZM1132.11 188.44H1142.81V189.512H1132.11V188.44ZM1156.13 187.8H1157.47V198.36H1156.13V187.8ZM1148.17 200.84H1157.9V201.928H1148.17V200.84ZM1148.17 197.272H1149.49V201.208H1148.17V197.272ZM1149.71 188.792C1151.87 188.792 1153.47 190.264 1153.47 192.36C1153.47 194.44 1151.87 195.928 1149.71 195.928C1147.55 195.928 1145.93 194.44 1145.93 192.36C1145.93 190.264 1147.55 188.792 1149.71 188.792ZM1149.71 189.944C1148.3 189.944 1147.23 190.936 1147.23 192.36C1147.23 193.768 1148.3 194.76 1149.71 194.76C1151.12 194.76 1152.19 193.768 1152.19 192.36C1152.19 190.936 1151.12 189.944 1149.71 189.944ZM1173.74 201H1171.74L1167.99 195.736L1166.87 196.664V201H1165.14V189.576H1166.87V195.096C1167.15 194.765 1167.43 194.44 1167.7 194.12C1167.98 193.8 1168.26 193.48 1168.54 193.16L1171.62 189.576H1173.61L1169.24 194.568L1173.74 201ZM1174.29 197.432V195.992H1178.26V197.432H1174.29ZM1185.32 201L1181.87 191.288H1181.8C1181.81 191.501 1181.83 191.789 1181.85 192.152C1181.87 192.515 1181.89 192.904 1181.9 193.32C1181.91 193.736 1181.91 194.147 1181.91 194.552V201H1180.35V189.576H1182.81L1186.09 198.744H1186.15L1189.53 189.576H1191.99V201H1190.31V194.456C1190.31 194.083 1190.32 193.699 1190.33 193.304C1190.35 192.899 1190.37 192.52 1190.38 192.168C1190.4 191.816 1190.42 191.528 1190.43 191.304H1190.36L1186.81 201H1185.32ZM1205.08 195.272C1205.08 196.157 1204.97 196.963 1204.75 197.688C1204.53 198.403 1204.2 199.021 1203.75 199.544C1203.32 200.067 1202.76 200.467 1202.09 200.744C1201.43 201.021 1200.66 201.16 1199.77 201.16C1198.86 201.16 1198.07 201.021 1197.4 200.744C1196.74 200.456 1196.19 200.056 1195.74 199.544C1195.3 199.021 1194.98 198.397 1194.76 197.672C1194.55 196.947 1194.44 196.141 1194.44 195.256C1194.44 194.083 1194.63 193.059 1195.02 192.184C1195.4 191.309 1195.99 190.627 1196.78 190.136C1197.58 189.645 1198.58 189.4 1199.79 189.4C1200.96 189.4 1201.94 189.645 1202.71 190.136C1203.5 190.616 1204.1 191.299 1204.49 192.184C1204.88 193.059 1205.08 194.088 1205.08 195.272ZM1196.27 195.272C1196.27 196.189 1196.39 196.979 1196.63 197.64C1196.88 198.291 1197.26 198.797 1197.79 199.16C1198.31 199.512 1198.97 199.688 1199.77 199.688C1200.58 199.688 1201.24 199.512 1201.75 199.16C1202.27 198.797 1202.64 198.291 1202.89 197.64C1203.14 196.979 1203.26 196.189 1203.26 195.272C1203.26 193.896 1202.98 192.824 1202.43 192.056C1201.88 191.277 1201 190.888 1199.79 190.888C1198.98 190.888 1198.31 191.064 1197.79 191.416C1197.26 191.768 1196.88 192.269 1196.63 192.92C1196.39 193.571 1196.27 194.355 1196.27 195.272ZM1217.61 195.272C1217.61 196.157 1217.5 196.963 1217.28 197.688C1217.06 198.403 1216.73 199.021 1216.28 199.544C1215.85 200.067 1215.29 200.467 1214.62 200.744C1213.96 201.021 1213.19 201.16 1212.3 201.16C1211.39 201.16 1210.6 201.021 1209.93 200.744C1209.27 200.456 1208.72 200.056 1208.27 199.544C1207.83 199.021 1207.51 198.397 1207.29 197.672C1207.08 196.947 1206.97 196.141 1206.97 195.256C1206.97 194.083 1207.16 193.059 1207.55 192.184C1207.93 191.309 1208.52 190.627 1209.31 190.136C1210.11 189.645 1211.11 189.4 1212.32 189.4C1213.49 189.4 1214.47 189.645 1215.24 190.136C1216.03 190.616 1216.63 191.299 1217.02 192.184C1217.41 193.059 1217.61 194.088 1217.61 195.272ZM1208.8 195.272C1208.8 196.189 1208.92 196.979 1209.16 197.64C1209.41 198.291 1209.79 198.797 1210.32 199.16C1210.84 199.512 1211.5 199.688 1212.3 199.688C1213.11 199.688 1213.77 199.512 1214.28 199.16C1214.8 198.797 1215.17 198.291 1215.42 197.64C1215.67 196.979 1215.79 196.189 1215.79 195.272C1215.79 193.896 1215.51 192.824 1214.96 192.056C1214.41 191.277 1213.53 190.888 1212.32 190.888C1211.51 190.888 1210.84 191.064 1210.32 191.416C1209.79 191.768 1209.41 192.269 1209.16 192.92C1208.92 193.571 1208.8 194.355 1208.8 195.272ZM1224.94 190.904C1224.38 190.904 1223.87 191.005 1223.42 191.208C1222.97 191.4 1222.59 191.688 1222.27 192.072C1221.96 192.456 1221.72 192.92 1221.55 193.464C1221.39 194.008 1221.31 194.621 1221.31 195.304C1221.31 196.2 1221.44 196.979 1221.71 197.64C1221.98 198.291 1222.38 198.792 1222.91 199.144C1223.44 199.496 1224.12 199.672 1224.93 199.672C1225.42 199.672 1225.89 199.629 1226.33 199.544C1226.79 199.448 1227.26 199.325 1227.73 199.176V200.664C1227.28 200.835 1226.82 200.957 1226.35 201.032C1225.88 201.117 1225.34 201.16 1224.72 201.16C1223.56 201.16 1222.59 200.92 1221.81 200.44C1221.04 199.96 1220.46 199.277 1220.08 198.392C1219.69 197.507 1219.5 196.472 1219.5 195.288C1219.5 194.424 1219.62 193.635 1219.85 192.92C1220.1 192.195 1220.45 191.571 1220.91 191.048C1221.37 190.525 1221.93 190.125 1222.61 189.848C1223.29 189.56 1224.07 189.416 1224.96 189.416C1225.53 189.416 1226.1 189.48 1226.65 189.608C1227.21 189.725 1227.71 189.896 1228.16 190.12L1227.52 191.56C1227.15 191.389 1226.74 191.24 1226.3 191.112C1225.88 190.973 1225.42 190.904 1224.94 190.904ZM1243.45 187.784H1244.78V196.44H1243.45V187.784ZM1244.41 191.512H1246.92V192.632H1244.41V191.512ZM1239.45 188.84H1240.87C1240.87 192.552 1238.3 195.256 1234.12 196.488L1233.56 195.416C1237.24 194.328 1239.45 192.152 1239.45 189.448V188.84ZM1234.2 188.84H1240.2V189.944H1234.2V188.84ZM1240.25 196.616C1243.11 196.616 1244.94 197.672 1244.94 199.416C1244.94 201.16 1243.11 202.216 1240.25 202.216C1237.37 202.216 1235.53 201.16 1235.53 199.416C1235.53 197.672 1237.37 196.616 1240.25 196.616ZM1240.25 197.672C1238.17 197.672 1236.84 198.328 1236.84 199.416C1236.84 200.504 1238.17 201.16 1240.25 201.16C1242.33 201.16 1243.66 200.504 1243.66 199.416C1243.66 198.328 1242.33 197.672 1240.25 197.672ZM1251.96 189.512H1253.05V190.36C1253.05 192.904 1251.38 194.968 1248.97 195.768L1248.31 194.728C1250.45 194.04 1251.96 192.328 1251.96 190.36V189.512ZM1252.2 189.512H1253.29V190.36C1253.29 192.2 1254.73 193.832 1256.84 194.488L1256.21 195.528C1253.81 194.76 1252.2 192.776 1252.2 190.36V189.512ZM1248.74 189.112H1256.49V190.216H1248.74V189.112ZM1251.96 195.16H1253.29V198.52H1251.96V195.16ZM1258.97 193.784H1261.64V194.904H1258.97V193.784ZM1258.02 187.784H1259.35V202.248H1258.02V187.784ZM1248.25 199.224L1248.07 198.12C1250.61 198.12 1254.13 198.12 1257.11 197.688L1257.22 198.68C1254.13 199.224 1250.74 199.24 1248.25 199.224ZM1272.91 195.016H1274.24V197.544H1272.91V195.016ZM1267.04 194.552H1280.11V195.624H1267.04V194.552ZM1273.57 197.144C1276.67 197.144 1278.53 198.056 1278.53 199.688C1278.53 201.304 1276.67 202.216 1273.57 202.216C1270.47 202.216 1268.61 201.304 1268.61 199.688C1268.61 198.056 1270.47 197.144 1273.57 197.144ZM1273.57 198.168C1271.31 198.168 1269.95 198.712 1269.95 199.688C1269.95 200.648 1271.31 201.192 1273.57 201.192C1275.84 201.192 1277.19 200.648 1277.19 199.688C1277.19 198.712 1275.84 198.168 1273.57 198.168ZM1272.72 188.968H1273.91V189.4C1273.91 191.736 1271.25 193.304 1268.26 193.672L1267.78 192.616C1270.37 192.344 1272.72 191.048 1272.72 189.4V188.968ZM1273.28 188.968H1274.45V189.4C1274.45 191.048 1276.8 192.344 1279.39 192.616L1278.91 193.672C1275.92 193.304 1273.28 191.736 1273.28 189.4V188.968ZM1268.24 188.44H1278.95V189.512H1268.24V188.44ZM1284.16 199.32C1284.06 199.693 1283.94 200.099 1283.79 200.536C1283.64 200.973 1283.48 201.405 1283.31 201.832C1283.14 202.269 1282.97 202.68 1282.78 203.064H1281.55C1281.66 202.648 1281.76 202.205 1281.86 201.736C1281.96 201.277 1282.06 200.824 1282.14 200.376C1282.23 199.928 1282.3 199.517 1282.35 199.144H1284.05L1284.16 199.32ZM1290.24 189.304H1298.79V190.392H1290.24V189.304ZM1294.52 191.128C1296.56 191.128 1297.97 192.152 1297.97 193.752C1297.97 195.336 1296.56 196.344 1294.52 196.344C1292.44 196.344 1291.04 195.336 1291.04 193.752C1291.04 192.152 1292.44 191.128 1294.52 191.128ZM1294.52 192.168C1293.19 192.168 1292.31 192.776 1292.31 193.752C1292.31 194.696 1293.19 195.32 1294.52 195.32C1295.81 195.32 1296.71 194.696 1296.71 193.752C1296.71 192.776 1295.81 192.168 1294.52 192.168ZM1300.1 187.784H1301.43V196.824H1300.1V187.784ZM1301.06 191.768H1303.57V192.872H1301.06V191.768ZM1292.04 197.608H1301.43V202.248H1300.1V198.696H1292.04V197.608ZM1293.84 187.704H1295.17V189.912H1293.84V187.704ZM1312.61 191.4H1315.83V192.504H1312.61V191.4ZM1315.46 187.784H1316.79V196.248H1315.46V187.784ZM1307.41 196.952H1316.79V202.056H1307.41V196.952ZM1315.49 198.008H1308.71V200.984H1315.49V198.008ZM1308.58 189.16H1309.67V190.328C1309.67 192.968 1308.03 195.224 1305.62 196.12L1304.93 195.064C1307.09 194.296 1308.58 192.376 1308.58 190.328V189.16ZM1308.83 189.16H1309.91V190.312C1309.91 192.184 1311.31 193.992 1313.41 194.728L1312.74 195.784C1310.39 194.936 1308.83 192.744 1308.83 190.312V189.16ZM1305.35 188.712H1313.07V189.784H1305.35V188.712ZM1319.57 195.384H1332.64V196.472H1319.57V195.384ZM1321.27 200.84H1331.2V201.928H1321.27V200.84ZM1321.27 197.736H1322.59V201.176H1321.27V197.736ZM1326.11 188.264C1329.2 188.264 1331.2 189.352 1331.2 191.16C1331.2 192.952 1329.2 194.04 1326.11 194.04C1323.01 194.04 1321.03 192.952 1321.03 191.16C1321.03 189.352 1323.01 188.264 1326.11 188.264ZM1326.11 189.352C1323.84 189.352 1322.39 190.024 1322.39 191.16C1322.39 192.296 1323.84 192.968 1326.11 192.968C1328.39 192.968 1329.84 192.296 1329.84 191.16C1329.84 190.024 1328.39 189.352 1326.11 189.352ZM1345.18 187.784H1346.45V196.936H1345.18V187.784ZM1342.83 191.704H1345.57V192.808H1342.83V191.704ZM1342.1 188.072H1343.34V196.424H1342.1V188.072ZM1334.19 189.512H1341.52V190.568H1334.19V189.512ZM1337.87 191.304C1339.68 191.304 1340.94 192.296 1340.94 193.784C1340.94 195.288 1339.68 196.264 1337.87 196.264C1336.05 196.264 1334.78 195.288 1334.78 193.784C1334.78 192.296 1336.05 191.304 1337.87 191.304ZM1337.87 192.296C1336.74 192.296 1335.97 192.888 1335.97 193.784C1335.97 194.696 1336.74 195.272 1337.87 195.272C1338.99 195.272 1339.76 194.696 1339.76 193.784C1339.76 192.888 1338.99 192.296 1337.87 192.296ZM1337.22 187.896H1338.51V190.104H1337.22V187.896ZM1341.71 197.192C1344.72 197.192 1346.53 198.088 1346.53 199.704C1346.53 201.304 1344.72 202.216 1341.71 202.216C1338.67 202.216 1336.88 201.304 1336.88 199.704C1336.88 198.088 1338.67 197.192 1341.71 197.192ZM1341.71 198.216C1339.49 198.216 1338.19 198.744 1338.19 199.704C1338.19 200.664 1339.49 201.208 1341.71 201.208C1343.9 201.208 1345.22 200.664 1345.22 199.704C1345.22 198.744 1343.9 198.216 1341.71 198.216ZM1359.95 187.784H1361.23V202.248H1359.95V187.784ZM1354.69 192.968H1357.45V194.072H1354.69V192.968ZM1357.05 188.12H1358.3V201.512H1357.05V188.12ZM1351.9 190.024H1352.93V191.864C1352.93 195.032 1351.71 198.024 1349.58 199.368L1348.77 198.376C1350.78 197.16 1351.9 194.52 1351.9 191.864V190.024ZM1352.17 190.024H1353.2V191.864C1353.2 194.376 1354.29 196.888 1356.27 198.04L1355.45 199.016C1353.34 197.736 1352.17 194.888 1352.17 191.864V190.024ZM1349.17 189.464H1355.77V190.568H1349.17V189.464ZM1375.96 190.36H1379.07V191.448H1375.96V190.36ZM1375.96 192.952H1379.07V194.04H1375.96V192.952ZM1368.19 188.872H1375.8V189.96H1368.19V188.872ZM1367.95 195.848L1367.8 194.728C1370.17 194.728 1373.55 194.696 1376.25 194.376L1376.33 195.368C1373.55 195.816 1370.3 195.848 1367.95 195.848ZM1369.63 189.72H1370.91V195.096H1369.63V189.72ZM1373.08 189.72H1374.36V195.096H1373.08V189.72ZM1378.33 187.784H1379.66V196.712H1378.33V187.784ZM1374.91 197C1377.9 197 1379.72 197.944 1379.72 199.608C1379.72 201.272 1377.9 202.216 1374.91 202.216C1371.9 202.216 1370.07 201.272 1370.07 199.608C1370.07 197.944 1371.9 197 1374.91 197ZM1374.91 198.04C1372.71 198.04 1371.4 198.616 1371.4 199.608C1371.4 200.6 1372.71 201.192 1374.91 201.192C1377.1 201.192 1378.41 200.6 1378.41 199.608C1378.41 198.616 1377.1 198.04 1374.91 198.04ZM1392.23 187.768H1393.58V202.248H1392.23V187.768ZM1393.21 193.64H1395.88V194.744H1393.21V193.64ZM1388.54 189.336H1389.83C1389.83 193.448 1387.94 197.16 1383.27 199.512L1382.54 198.488C1386.54 196.456 1388.54 193.368 1388.54 189.544V189.336ZM1383.21 189.336H1389.22V190.424H1383.21V189.336ZM1407.66 187.8H1409V198.36H1407.66V187.8ZM1399.7 200.84H1409.43V201.928H1399.7V200.84ZM1399.7 197.272H1401.02V201.208H1399.7V197.272ZM1401.24 188.792C1403.4 188.792 1405 190.264 1405 192.36C1405 194.44 1403.4 195.928 1401.24 195.928C1399.08 195.928 1397.46 194.44 1397.46 192.36C1397.46 190.264 1399.08 188.792 1401.24 188.792ZM1401.24 189.944C1399.83 189.944 1398.76 190.936 1398.76 192.36C1398.76 193.768 1399.83 194.76 1401.24 194.76C1402.65 194.76 1403.72 193.768 1403.72 192.36C1403.72 190.936 1402.65 189.944 1401.24 189.944ZM1419.54 191.528H1422.81V192.632H1419.54V191.528ZM1422.39 187.784H1423.72V196.408H1422.39V187.784ZM1418.97 196.84C1421.94 196.84 1423.78 197.848 1423.78 199.544C1423.78 201.256 1421.94 202.232 1418.97 202.232C1415.97 202.232 1414.13 201.256 1414.13 199.544C1414.13 197.848 1415.97 196.84 1418.97 196.84ZM1418.97 197.88C1416.79 197.88 1415.46 198.488 1415.46 199.544C1415.46 200.584 1416.79 201.192 1418.97 201.192C1421.14 201.192 1422.47 200.584 1422.47 199.544C1422.47 198.488 1421.14 197.88 1418.97 197.88ZM1415.51 189.24H1416.6V190.408C1416.6 193.08 1414.97 195.368 1412.57 196.264L1411.88 195.208C1414.02 194.424 1415.51 192.488 1415.51 190.408V189.24ZM1415.77 189.24H1416.84V190.408C1416.84 192.28 1418.25 194.072 1420.34 194.808L1419.67 195.864C1417.32 195.016 1415.77 192.84 1415.77 190.408V189.24ZM1412.28 188.84H1420.01V189.928H1412.28V188.84ZM1438.35 191H1442.08V192.088H1438.35V191ZM1434.29 189.016H1435.38V189.976C1435.38 192.408 1433.75 194.6 1431.33 195.416L1430.69 194.376C1432.8 193.656 1434.29 191.832 1434.29 189.976V189.016ZM1434.55 189.016H1435.63V189.992C1435.63 191.72 1437.04 193.384 1439.12 194.04L1438.48 195.08C1436.11 194.312 1434.55 192.296 1434.55 189.992V189.016ZM1431.09 188.52H1438.82V189.608H1431.09V188.52ZM1441.2 187.784H1442.53V195.24H1441.2V187.784ZM1433.22 195.976H1442.53V199.448H1434.55V201.688H1433.25V198.456H1441.22V197.032H1433.22V195.976ZM1433.25 201.032H1443.06V202.088H1433.25V201.032ZM1448.85 191.224H1449.89V192.456C1449.89 195.512 1448.22 198.328 1445.94 199.464L1445.18 198.44C1447.31 197.416 1448.85 194.952 1448.85 192.456V191.224ZM1449.1 191.224H1450.14V192.456C1450.14 194.792 1451.6 197.144 1453.66 198.168L1452.93 199.192C1450.67 198.072 1449.1 195.336 1449.1 192.456V191.224ZM1445.58 190.296H1453.34V191.368H1445.58V190.296ZM1448.83 188.04H1450.14V190.888H1448.83V188.04ZM1455.1 187.784H1456.45V202.248H1455.1V187.784ZM1456.13 193.72H1458.82V194.824H1456.13V193.72ZM1465.87 193.4H1468.61V194.504H1465.87V193.4ZM1471.02 187.784H1472.3V202.248H1471.02V187.784ZM1468.16 188.088H1469.42V201.528H1468.16V188.088ZM1463.26 188.984C1465.13 188.984 1466.35 190.92 1466.35 194.024C1466.35 197.128 1465.13 199.064 1463.26 199.064C1461.39 199.064 1460.19 197.128 1460.19 194.024C1460.19 190.92 1461.39 188.984 1463.26 188.984ZM1463.26 190.216C1462.13 190.216 1461.41 191.688 1461.41 194.024C1461.41 196.36 1462.13 197.832 1463.26 197.832C1464.41 197.832 1465.13 196.36 1465.13 194.024C1465.13 191.688 1464.41 190.216 1463.26 190.216ZM1488.84 187.768H1490.17V202.264H1488.84V187.768ZM1489.58 193.464H1492.25V194.568H1489.58V193.464ZM1479.24 197.352H1479.88C1480.7 197.352 1481.79 197.336 1483.03 197.048L1483.16 198.152C1481.83 198.456 1480.76 198.472 1479.88 198.472H1479.24V197.352ZM1479.24 189.304H1482.89V190.376H1480.55V197.896H1479.24V189.304ZM1483.71 197.352H1484.41C1485.82 197.352 1486.83 197.32 1487.99 197.016L1488.12 198.12C1486.89 198.424 1485.9 198.472 1484.41 198.472H1483.71V197.352ZM1483.71 189.304H1487.55V190.376H1485.02V197.912H1483.71V189.304ZM1503.3 187.768H1504.63V202.264H1503.3V187.768ZM1504.31 193.528H1507V194.648H1504.31V193.528ZM1494.09 197.672H1495.24C1497.96 197.672 1499.85 197.576 1502.04 197.16L1502.18 198.264C1499.93 198.664 1498.01 198.776 1495.24 198.776H1494.09V197.672ZM1494.06 189.128H1500.6V194.312H1495.4V198.12H1494.09V193.224H1499.29V190.216H1494.06V189.128ZM1279.83 214.696C1282.84 214.696 1285.08 216.296 1285.08 218.696C1285.08 221.112 1282.84 222.696 1279.83 222.696C1276.82 222.696 1274.56 221.112 1274.56 218.696C1274.56 216.296 1276.82 214.696 1279.83 214.696ZM1279.83 215.784C1277.54 215.784 1275.84 216.952 1275.84 218.696C1275.84 220.424 1277.54 221.608 1279.83 221.608C1282.12 221.608 1283.81 220.424 1283.81 218.696C1283.81 216.952 1282.12 215.784 1279.83 215.784ZM1273.3 225.224H1286.4V226.344H1273.3V225.224ZM1287.99 225.368H1301.09V226.472H1287.99V225.368ZM1293.84 222.264H1295.17V225.832H1293.84V222.264ZM1289.57 214.856H1299.47V219.24H1290.93V222.136H1289.62V218.168H1298.16V215.928H1289.57V214.856ZM1289.62 221.576H1299.81V222.664H1289.62V221.576ZM1312.65 214.024H1313.79V214.664C1313.79 217.224 1311.01 219.064 1308.05 219.544L1307.55 218.488C1310.14 218.136 1312.65 216.536 1312.65 214.664V214.024ZM1312.86 214.024H1314V214.664C1314 216.504 1316.54 218.136 1319.1 218.488L1318.61 219.544C1315.66 219.064 1312.86 217.176 1312.86 214.664V214.024ZM1306.78 220.68H1319.85V221.768H1306.78V220.68ZM1313.31 223.096C1316.41 223.096 1318.27 224.024 1318.27 225.656C1318.27 227.32 1316.41 228.232 1313.31 228.232C1310.21 228.232 1308.35 227.32 1308.35 225.656C1308.35 224.024 1310.21 223.096 1313.31 223.096ZM1313.31 224.12C1311.05 224.12 1309.69 224.696 1309.69 225.656C1309.69 226.648 1311.05 227.208 1313.31 227.208C1315.58 227.208 1316.93 226.648 1316.93 225.656C1316.93 224.696 1315.58 224.12 1313.31 224.12ZM1332 213.8H1333.34V224.36H1332V213.8ZM1324.04 226.84H1333.77V227.928H1324.04V226.84ZM1324.04 223.272H1325.36V227.208H1324.04V223.272ZM1325.58 214.792C1327.74 214.792 1329.34 216.264 1329.34 218.36C1329.34 220.44 1327.74 221.928 1325.58 221.928C1323.42 221.928 1321.8 220.44 1321.8 218.36C1321.8 216.264 1323.42 214.792 1325.58 214.792ZM1325.58 215.944C1324.17 215.944 1323.1 216.936 1323.1 218.36C1323.1 219.768 1324.17 220.76 1325.58 220.76C1326.99 220.76 1328.06 219.768 1328.06 218.36C1328.06 216.936 1326.99 215.944 1325.58 215.944ZM1346.06 213.784H1347.39V222.248H1346.06V213.784ZM1347.02 217.256H1349.53V218.376H1347.02V217.256ZM1336.76 214.584H1338.08V216.792H1342.16V214.584H1343.45V221.336H1336.76V214.584ZM1338.08 217.848V220.264H1342.16V217.848H1338.08ZM1338.35 223.032H1347.5V224.104H1339.68V227.736H1338.35V223.032ZM1338.35 226.968H1347.79V228.056H1338.35V226.968ZM1350.84 221.384H1363.91V222.472H1350.84V221.384ZM1352.54 226.84H1362.47V227.928H1352.54V226.84ZM1352.54 223.736H1353.87V227.176H1352.54V223.736ZM1357.39 214.264C1360.47 214.264 1362.47 215.352 1362.47 217.16C1362.47 218.952 1360.47 220.04 1357.39 220.04C1354.28 220.04 1352.3 218.952 1352.3 217.16C1352.3 215.352 1354.28 214.264 1357.39 214.264ZM1357.39 215.352C1355.11 215.352 1353.66 216.024 1353.66 217.16C1353.66 218.296 1355.11 218.968 1357.39 218.968C1359.66 218.968 1361.11 218.296 1361.11 217.16C1361.11 216.024 1359.66 215.352 1357.39 215.352ZM1379.56 213.784H1380.89V222.44H1379.56V213.784ZM1380.52 217.512H1383.03V218.632H1380.52V217.512ZM1375.56 214.84H1376.98C1376.98 218.552 1374.41 221.256 1370.23 222.488L1369.67 221.416C1373.35 220.328 1375.56 218.152 1375.56 215.448V214.84ZM1370.31 214.84H1376.31V215.944H1370.31V214.84ZM1376.36 222.616C1379.22 222.616 1381.05 223.672 1381.05 225.416C1381.05 227.16 1379.22 228.216 1376.36 228.216C1373.48 228.216 1371.64 227.16 1371.64 225.416C1371.64 223.672 1373.48 222.616 1376.36 222.616ZM1376.36 223.672C1374.28 223.672 1372.95 224.328 1372.95 225.416C1372.95 226.504 1374.28 227.16 1376.36 227.16C1378.44 227.16 1379.77 226.504 1379.77 225.416C1379.77 224.328 1378.44 223.672 1376.36 223.672ZM1388.07 215.512H1389.16V216.36C1389.16 218.904 1387.49 220.968 1385.08 221.768L1384.42 220.728C1386.56 220.04 1388.07 218.328 1388.07 216.36V215.512ZM1388.31 215.512H1389.4V216.36C1389.4 218.2 1390.84 219.832 1392.95 220.488L1392.32 221.528C1389.92 220.76 1388.31 218.776 1388.31 216.36V215.512ZM1384.85 215.112H1392.6V216.216H1384.85V215.112ZM1388.07 221.16H1389.4V224.52H1388.07V221.16ZM1395.08 219.784H1397.75V220.904H1395.08V219.784ZM1394.13 213.784H1395.46V228.248H1394.13V213.784ZM1384.36 225.224L1384.18 224.12C1386.72 224.12 1390.24 224.12 1393.22 223.688L1393.33 224.68C1390.24 225.224 1386.85 225.24 1384.36 225.224ZM1399.04 225.368H1412.15V226.472H1399.04V225.368ZM1404.9 222.264H1406.23V225.832H1404.9V222.264ZM1400.63 214.856H1410.53V219.24H1401.99V222.136H1400.67V218.168H1409.22V215.928H1400.63V214.856ZM1400.67 221.576H1410.87V222.664H1400.67V221.576ZM1071.27 242.248H1078.43V243.336H1071.27V242.248ZM1074.85 244.296C1076.66 244.296 1077.97 245.656 1077.97 247.608C1077.97 249.544 1076.66 250.904 1074.85 250.904C1073.06 250.904 1071.75 249.544 1071.75 247.608C1071.75 245.656 1073.06 244.296 1074.85 244.296ZM1074.85 245.432C1073.75 245.432 1072.95 246.328 1072.95 247.608C1072.95 248.888 1073.75 249.784 1074.85 249.784C1075.97 249.784 1076.79 248.888 1076.79 247.608C1076.79 246.328 1075.97 245.432 1074.85 245.432ZM1082.26 239.784H1083.54V254.248H1082.26V239.784ZM1079.95 245.864H1082.69V246.968H1079.95V245.864ZM1079.17 240.104H1080.42V253.544H1079.17V240.104ZM1074.21 240.2H1075.52V242.92H1074.21V240.2ZM1095.89 239.784H1097.22V248.376H1095.89V239.784ZM1096.83 243.544H1099.34V244.648H1096.83V243.544ZM1092.59 248.68C1095.52 248.68 1097.34 249.72 1097.34 251.464C1097.34 253.208 1095.52 254.232 1092.59 254.232C1089.66 254.232 1087.84 253.208 1087.84 251.464C1087.84 249.72 1089.66 248.68 1092.59 248.68ZM1092.59 249.768C1090.45 249.768 1089.14 250.376 1089.14 251.464C1089.14 252.52 1090.45 253.144 1092.59 253.144C1094.74 253.144 1096.05 252.52 1096.05 251.464C1096.05 250.376 1094.74 249.768 1092.59 249.768ZM1086.62 246.152H1087.74C1090.74 246.152 1092.42 246.056 1094.35 245.656L1094.51 246.744C1092.51 247.144 1090.8 247.24 1087.74 247.24H1086.62V246.152ZM1086.62 240.888H1093.01V241.976H1087.94V246.856H1086.62V240.888ZM1114.68 239.784H1116.01V248.44H1114.68V239.784ZM1115.64 243.512H1118.15V244.632H1115.64V243.512ZM1110.68 240.84H1112.11C1112.11 244.552 1109.53 247.256 1105.35 248.488L1104.79 247.416C1108.47 246.328 1110.68 244.152 1110.68 241.448V240.84ZM1105.43 240.84H1111.43V241.944H1105.43V240.84ZM1111.48 248.616C1114.35 248.616 1116.17 249.672 1116.17 251.416C1116.17 253.16 1114.35 254.216 1111.48 254.216C1108.6 254.216 1106.76 253.16 1106.76 251.416C1106.76 249.672 1108.6 248.616 1111.48 248.616ZM1111.48 249.672C1109.4 249.672 1108.07 250.328 1108.07 251.416C1108.07 252.504 1109.4 253.16 1111.48 253.16C1113.56 253.16 1114.89 252.504 1114.89 251.416C1114.89 250.328 1113.56 249.672 1111.48 249.672ZM1123.19 241.512H1124.28V242.36C1124.28 244.904 1122.62 246.968 1120.2 247.768L1119.55 246.728C1121.69 246.04 1123.19 244.328 1123.19 242.36V241.512ZM1123.43 241.512H1124.52V242.36C1124.52 244.2 1125.96 245.832 1128.07 246.488L1127.45 247.528C1125.05 246.76 1123.43 244.776 1123.43 242.36V241.512ZM1119.98 241.112H1127.72V242.216H1119.98V241.112ZM1123.19 247.16H1124.52V250.52H1123.19V247.16ZM1130.2 245.784H1132.87V246.904H1130.2V245.784ZM1129.26 239.784H1130.59V254.248H1129.26V239.784ZM1119.48 251.224L1119.31 250.12C1121.85 250.12 1125.37 250.12 1128.35 249.688L1128.46 250.68C1125.37 251.224 1121.98 251.24 1119.48 251.224ZM1134.15 246.504H1147.27V247.512H1134.15V246.504ZM1135.7 248.68H1145.62V251.768H1137.06V253.464H1135.75V250.856H1144.33V249.624H1135.7V248.68ZM1135.75 253.112H1146.09V254.072H1135.75V253.112ZM1135.82 240.2H1145.58V243.208H1137.16V244.776H1135.85V242.312H1144.28V241.144H1135.82V240.2ZM1135.85 244.456H1145.85V245.416H1135.85V244.456ZM1163.48 239.768H1164.8V254.264H1163.48V239.768ZM1157.17 240.888C1159.32 240.888 1160.85 242.856 1160.85 245.928C1160.85 249.016 1159.32 250.984 1157.17 250.984C1155.04 250.984 1153.51 249.016 1153.51 245.928C1153.51 242.856 1155.04 240.888 1157.17 240.888ZM1157.17 242.088C1155.76 242.088 1154.77 243.592 1154.77 245.928C1154.77 248.28 1155.76 249.816 1157.17 249.816C1158.6 249.816 1159.57 248.28 1159.57 245.928C1159.57 243.592 1158.6 242.088 1157.17 242.088ZM1173.51 240.296H1174.67V241.096C1174.67 243.864 1171.86 245.848 1168.85 246.36L1168.32 245.288C1170.96 244.888 1173.51 243.16 1173.51 241.096V240.296ZM1173.75 240.296H1174.9V241.096C1174.9 243.112 1177.47 244.888 1180.08 245.288L1179.55 246.36C1176.58 245.848 1173.75 243.832 1173.75 241.096V240.296ZM1173.51 248.744H1174.82V254.248H1173.51V248.744ZM1167.67 247.928H1180.74V249.032H1167.67V247.928ZM1192.24 239.8H1193.57V250.648H1192.24V239.8ZM1193.15 244.536H1195.71V245.656H1193.15V244.536ZM1182.38 241.544H1190.93V242.616H1182.38V241.544ZM1186.66 243.416C1188.7 243.416 1190.11 244.488 1190.11 246.12C1190.11 247.736 1188.7 248.808 1186.66 248.808C1184.59 248.808 1183.18 247.736 1183.18 246.12C1183.18 244.488 1184.59 243.416 1186.66 243.416ZM1186.66 244.456C1185.34 244.456 1184.45 245.112 1184.45 246.12C1184.45 247.112 1185.34 247.768 1186.66 247.768C1187.95 247.768 1188.85 247.112 1188.85 246.12C1188.85 245.112 1187.95 244.456 1186.66 244.456ZM1185.98 239.784H1187.31V242.104H1185.98V239.784ZM1184.56 252.84H1194.22V253.928H1184.56V252.84ZM1184.56 249.784H1185.89V253.304H1184.56V249.784ZM1201.2 241.304H1209.74V242.392H1201.2V241.304ZM1205.47 243.128C1207.52 243.128 1208.92 244.152 1208.92 245.752C1208.92 247.336 1207.52 248.344 1205.47 248.344C1203.39 248.344 1202 247.336 1202 245.752C1202 244.152 1203.39 243.128 1205.47 243.128ZM1205.47 244.168C1204.14 244.168 1203.26 244.776 1203.26 245.752C1203.26 246.696 1204.14 247.32 1205.47 247.32C1206.76 247.32 1207.66 246.696 1207.66 245.752C1207.66 244.776 1206.76 244.168 1205.47 244.168ZM1211.05 239.784H1212.38V248.824H1211.05V239.784ZM1212.01 243.768H1214.52V244.872H1212.01V243.768ZM1202.99 249.608H1212.38V254.248H1211.05V250.696H1202.99V249.608ZM1204.8 239.704H1206.12V241.912H1204.8V239.704ZM1217.5 248.456H1218.81V250.136H1225.88V248.456H1227.21V254.056H1217.5V248.456ZM1218.81 251.16V252.984H1225.88V251.16H1218.81ZM1215.83 246.376H1228.91V247.448H1215.83V246.376ZM1221.71 239.944H1222.84V240.584C1222.84 243.096 1220.04 244.904 1217.07 245.352L1216.59 244.312C1219.19 243.96 1221.71 242.408 1221.71 240.584V239.944ZM1221.91 239.944H1223.05V240.584C1223.05 242.376 1225.59 243.96 1228.17 244.312L1227.67 245.352C1224.73 244.904 1221.91 243.064 1221.91 240.584V239.944ZM1234.11 241.848H1235.16V244.2C1235.16 247.208 1233.32 250.312 1231.07 251.464L1230.3 250.408C1232.36 249.4 1234.11 246.648 1234.11 244.2V241.848ZM1234.35 241.848H1235.4V244.2C1235.4 246.488 1237.03 249.064 1239.13 250.056L1238.38 251.112C1236.09 249.976 1234.35 247.064 1234.35 244.2V241.848ZM1230.81 241.256H1238.6V242.376H1230.81V241.256ZM1240.31 239.784H1241.66V254.248H1240.31V239.784ZM1241.34 245.624H1244.03V246.744H1241.34V245.624ZM1246.98 244.12H1256.81V245.208H1246.98V244.12ZM1245.21 247.144H1258.33V248.232H1245.21V247.144ZM1246.98 240.312H1248.3V244.664H1246.98V240.312ZM1246.89 252.808H1256.89V253.896H1246.89V252.808ZM1246.89 249.672H1248.2V253.096H1246.89V249.672ZM1264.07 241.304H1272.61V242.392H1264.07V241.304ZM1268.34 243.128C1270.39 243.128 1271.8 244.152 1271.8 245.752C1271.8 247.336 1270.39 248.344 1268.34 248.344C1266.26 248.344 1264.87 247.336 1264.87 245.752C1264.87 244.152 1266.26 243.128 1268.34 243.128ZM1268.34 244.168C1267.01 244.168 1266.13 244.776 1266.13 245.752C1266.13 246.696 1267.01 247.32 1268.34 247.32C1269.64 247.32 1270.53 246.696 1270.53 245.752C1270.53 244.776 1269.64 244.168 1268.34 244.168ZM1273.92 239.784H1275.25V248.824H1273.92V239.784ZM1274.88 243.768H1277.4V244.872H1274.88V243.768ZM1265.86 249.608H1275.25V254.248H1273.92V250.696H1265.86V249.608ZM1267.67 239.704H1269V241.912H1267.67V239.704ZM1286.43 243.4H1289.65V244.504H1286.43V243.4ZM1289.28 239.784H1290.61V248.248H1289.28V239.784ZM1281.23 248.952H1290.61V254.056H1281.23V248.952ZM1289.31 250.008H1282.53V252.984H1289.31V250.008ZM1282.4 241.16H1283.49V242.328C1283.49 244.968 1281.86 247.224 1279.44 248.12L1278.75 247.064C1280.91 246.296 1282.4 244.376 1282.4 242.328V241.16ZM1282.66 241.16H1283.73V242.312C1283.73 244.184 1285.14 245.992 1287.23 246.728L1286.56 247.784C1284.21 246.936 1282.66 244.744 1282.66 242.312V241.16ZM1279.17 240.712H1286.9V241.784H1279.17V240.712ZM1293.39 247.384H1306.46V248.472H1293.39V247.384ZM1295.09 252.84H1305.02V253.928H1295.09V252.84ZM1295.09 249.736H1296.42V253.176H1295.09V249.736ZM1299.94 240.264C1303.02 240.264 1305.02 241.352 1305.02 243.16C1305.02 244.952 1303.02 246.04 1299.94 246.04C1296.83 246.04 1294.85 244.952 1294.85 243.16C1294.85 241.352 1296.83 240.264 1299.94 240.264ZM1299.94 241.352C1297.66 241.352 1296.21 242.024 1296.21 243.16C1296.21 244.296 1297.66 244.968 1299.94 244.968C1302.21 244.968 1303.66 244.296 1303.66 243.16C1303.66 242.024 1302.21 241.352 1299.94 241.352ZM1319.01 239.784H1320.27V248.936H1319.01V239.784ZM1316.66 243.704H1319.39V244.808H1316.66V243.704ZM1315.92 240.072H1317.17V248.424H1315.92V240.072ZM1308.02 241.512H1315.34V242.568H1308.02V241.512ZM1311.7 243.304C1313.5 243.304 1314.77 244.296 1314.77 245.784C1314.77 247.288 1313.5 248.264 1311.7 248.264C1309.87 248.264 1308.61 247.288 1308.61 245.784C1308.61 244.296 1309.87 243.304 1311.7 243.304ZM1311.7 244.296C1310.56 244.296 1309.79 244.888 1309.79 245.784C1309.79 246.696 1310.56 247.272 1311.7 247.272C1312.82 247.272 1313.58 246.696 1313.58 245.784C1313.58 244.888 1312.82 244.296 1311.7 244.296ZM1311.04 239.896H1312.34V242.104H1311.04V239.896ZM1315.54 249.192C1318.54 249.192 1320.35 250.088 1320.35 251.704C1320.35 253.304 1318.54 254.216 1315.54 254.216C1312.5 254.216 1310.7 253.304 1310.7 251.704C1310.7 250.088 1312.5 249.192 1315.54 249.192ZM1315.54 250.216C1313.31 250.216 1312.02 250.744 1312.02 251.704C1312.02 252.664 1313.31 253.208 1315.54 253.208C1317.73 253.208 1319.04 252.664 1319.04 251.704C1319.04 250.744 1317.73 250.216 1315.54 250.216ZM1333.77 239.784H1335.05V254.248H1333.77V239.784ZM1328.51 244.968H1331.28V246.072H1328.51V244.968ZM1330.88 240.12H1332.13V253.512H1330.88V240.12ZM1325.73 242.024H1326.75V243.864C1326.75 247.032 1325.53 250.024 1323.41 251.368L1322.59 250.376C1324.61 249.16 1325.73 246.52 1325.73 243.864V242.024ZM1326 242.024H1327.02V243.864C1327.02 246.376 1328.11 248.888 1330.09 250.04L1329.28 251.016C1327.17 249.736 1326 246.888 1326 243.864V242.024ZM1322.99 241.464H1329.6V242.568H1322.99V241.464ZM1341.63 241.304H1350.17V242.392H1341.63V241.304ZM1345.9 243.128C1347.95 243.128 1349.35 244.152 1349.35 245.752C1349.35 247.336 1347.95 248.344 1345.9 248.344C1343.82 248.344 1342.43 247.336 1342.43 245.752C1342.43 244.152 1343.82 243.128 1345.9 243.128ZM1345.9 244.168C1344.57 244.168 1343.69 244.776 1343.69 245.752C1343.69 246.696 1344.57 247.32 1345.9 247.32C1347.19 247.32 1348.09 246.696 1348.09 245.752C1348.09 244.776 1347.19 244.168 1345.9 244.168ZM1351.48 239.784H1352.81V248.824H1351.48V239.784ZM1352.44 243.768H1354.95V244.872H1352.44V243.768ZM1343.42 249.608H1352.81V254.248H1351.48V250.696H1343.42V249.608ZM1345.23 239.704H1346.55V241.912H1345.23V239.704ZM1363.99 243.4H1367.21V244.504H1363.99V243.4ZM1366.84 239.784H1368.17V248.248H1366.84V239.784ZM1358.79 248.952H1368.17V254.056H1358.79V248.952ZM1366.87 250.008H1360.09V252.984H1366.87V250.008ZM1359.96 241.16H1361.05V242.328C1361.05 244.968 1359.42 247.224 1357 248.12L1356.31 247.064C1358.47 246.296 1359.96 244.376 1359.96 242.328V241.16ZM1360.22 241.16H1361.29V242.312C1361.29 244.184 1362.7 245.992 1364.79 246.728L1364.12 247.784C1361.77 246.936 1360.22 244.744 1360.22 242.312V241.16ZM1356.73 240.712H1364.46V241.784H1356.73V240.712ZM1385.6 239.8H1386.95V250.36H1385.6V239.8ZM1377.65 252.84H1387.38V253.928H1377.65V252.84ZM1377.65 249.272H1378.96V253.208H1377.65V249.272ZM1379.19 240.792C1381.35 240.792 1382.95 242.264 1382.95 244.36C1382.95 246.44 1381.35 247.928 1379.19 247.928C1377.03 247.928 1375.41 246.44 1375.41 244.36C1375.41 242.264 1377.03 240.792 1379.19 240.792ZM1379.19 241.944C1377.78 241.944 1376.71 242.936 1376.71 244.36C1376.71 245.768 1377.78 246.76 1379.19 246.76C1380.59 246.76 1381.67 245.768 1381.67 244.36C1381.67 242.936 1380.59 241.944 1379.19 241.944ZM1397.49 243.528H1400.75V244.632H1397.49V243.528ZM1400.34 239.784H1401.67V248.408H1400.34V239.784ZM1396.91 248.84C1399.89 248.84 1401.73 249.848 1401.73 251.544C1401.73 253.256 1399.89 254.232 1396.91 254.232C1393.92 254.232 1392.08 253.256 1392.08 251.544C1392.08 249.848 1393.92 248.84 1396.91 248.84ZM1396.91 249.88C1394.74 249.88 1393.41 250.488 1393.41 251.544C1393.41 252.584 1394.74 253.192 1396.91 253.192C1399.09 253.192 1400.42 252.584 1400.42 251.544C1400.42 250.488 1399.09 249.88 1396.91 249.88ZM1393.46 241.24H1394.55V242.408C1394.55 245.08 1392.91 247.368 1390.51 248.264L1389.83 247.208C1391.97 246.424 1393.46 244.488 1393.46 242.408V241.24ZM1393.71 241.24H1394.79V242.408C1394.79 244.28 1396.19 246.072 1398.29 246.808L1397.62 247.864C1395.27 247.016 1393.71 244.84 1393.71 242.408V241.24ZM1390.23 240.84H1397.95V241.928H1390.23V240.84ZM1419.1 239.8H1420.44V250.392H1419.1V239.8ZM1411.15 252.84H1420.88V253.928H1411.15V252.84ZM1411.15 249.416H1412.46V253.352H1411.15V249.416ZM1412.35 240.584H1413.45V242.056C1413.45 244.872 1411.85 247.336 1409.42 248.328L1408.73 247.256C1410.91 246.408 1412.35 244.296 1412.35 242.056V240.584ZM1412.59 240.584H1413.68V242.056C1413.68 244.232 1415.13 246.2 1417.29 246.984L1416.59 248.056C1414.19 247.128 1412.59 244.808 1412.59 242.056V240.584ZM1426.88 242.248H1427.96V242.872C1427.96 245.384 1426.36 247.496 1423.95 248.312L1423.31 247.272C1425.44 246.584 1426.88 244.824 1426.88 242.872V242.248ZM1427.12 242.248H1428.2V242.872C1428.2 244.664 1429.69 246.28 1431.82 246.904L1431.21 247.944C1428.78 247.192 1427.12 245.24 1427.12 242.872V242.248ZM1423.68 241.528H1431.39V242.6H1423.68V241.528ZM1426.88 239.72H1428.2V241.912H1426.88V239.72ZM1430.96 243.896H1434.22V245H1430.96V243.896ZM1433.84 239.784H1435.16V248.536H1433.84V239.784ZM1430.41 248.92C1433.4 248.92 1435.23 249.896 1435.23 251.576C1435.23 253.24 1433.4 254.216 1430.41 254.216C1427.4 254.216 1425.58 253.24 1425.58 251.576C1425.58 249.896 1427.4 248.92 1430.41 248.92ZM1430.41 249.96C1428.22 249.96 1426.91 250.552 1426.91 251.576C1426.91 252.584 1428.22 253.176 1430.41 253.176C1432.59 253.176 1433.92 252.584 1433.92 251.576C1433.92 250.552 1432.59 249.96 1430.41 249.96ZM1444.49 240.024C1447.67 240.024 1449.58 240.92 1449.58 242.536C1449.58 244.152 1447.67 245.048 1444.49 245.048C1441.29 245.048 1439.4 244.152 1439.4 242.536C1439.4 240.92 1441.29 240.024 1444.49 240.024ZM1444.49 241.032C1442.12 241.032 1440.76 241.576 1440.76 242.536C1440.76 243.496 1442.12 244.04 1444.49 244.04C1446.84 244.04 1448.2 243.496 1448.2 242.536C1448.2 241.576 1446.84 241.032 1444.49 241.032ZM1437.95 246.008H1451.02V247.08H1437.95V246.008ZM1439.53 248.312H1449.35V251.576H1440.87V253.336H1439.56V250.616H1448.04V249.336H1439.53V248.312ZM1439.56 253.048H1449.79V254.088H1439.56V253.048ZM1456.76 247.448H1469.83V248.52H1456.76V247.448ZM1462.63 245.576H1463.94V247.896H1462.63V245.576ZM1458.49 244.984H1468.29V246.024H1458.49V244.984ZM1458.49 240.2H1468.23V241.24H1459.8V245.544H1458.49V240.2ZM1459.41 242.568H1467.85V243.592H1459.41V242.568ZM1463.29 249.592C1466.44 249.592 1468.25 250.392 1468.25 251.912C1468.25 253.416 1466.44 254.216 1463.29 254.216C1460.13 254.216 1458.33 253.416 1458.33 251.912C1458.33 250.392 1460.13 249.592 1463.29 249.592ZM1463.29 250.6C1460.97 250.6 1459.67 251.064 1459.67 251.912C1459.67 252.776 1460.97 253.224 1463.29 253.224C1465.61 253.224 1466.9 252.776 1466.9 251.912C1466.9 251.064 1465.61 250.6 1463.29 250.6ZM1471.43 242.248H1478.6V243.336H1471.43V242.248ZM1475.01 244.296C1476.82 244.296 1478.13 245.656 1478.13 247.608C1478.13 249.544 1476.82 250.904 1475.01 250.904C1473.22 250.904 1471.91 249.544 1471.91 247.608C1471.91 245.656 1473.22 244.296 1475.01 244.296ZM1475.01 245.432C1473.91 245.432 1473.11 246.328 1473.11 247.608C1473.11 248.888 1473.91 249.784 1475.01 249.784C1476.13 249.784 1476.95 248.888 1476.95 247.608C1476.95 246.328 1476.13 245.432 1475.01 245.432ZM1482.42 239.784H1483.7V254.248H1482.42V239.784ZM1480.12 245.864H1482.85V246.968H1480.12V245.864ZM1479.33 240.104H1480.58V253.544H1479.33V240.104ZM1474.37 240.2H1475.68V242.92H1474.37V240.2ZM1136.15 267.304H1144.7V268.392H1136.15V267.304ZM1140.43 269.128C1142.47 269.128 1143.88 270.152 1143.88 271.752C1143.88 273.336 1142.47 274.344 1140.43 274.344C1138.35 274.344 1136.95 273.336 1136.95 271.752C1136.95 270.152 1138.35 269.128 1140.43 269.128ZM1140.43 270.168C1139.1 270.168 1138.22 270.776 1138.22 271.752C1138.22 272.696 1139.1 273.32 1140.43 273.32C1141.72 273.32 1142.62 272.696 1142.62 271.752C1142.62 270.776 1141.72 270.168 1140.43 270.168ZM1146.01 265.784H1147.34V274.824H1146.01V265.784ZM1146.97 269.768H1149.48V270.872H1146.97V269.768ZM1137.95 275.608H1147.34V280.248H1146.01V276.696H1137.95V275.608ZM1139.75 265.704H1141.08V267.912H1139.75V265.704ZM1158.52 269.4H1161.74V270.504H1158.52V269.4ZM1161.37 265.784H1162.7V274.248H1161.37V265.784ZM1153.32 274.952H1162.7V280.056H1153.32V274.952ZM1161.4 276.008H1154.62V278.984H1161.4V276.008ZM1154.49 267.16H1155.58V268.328C1155.58 270.968 1153.94 273.224 1151.53 274.12L1150.84 273.064C1153 272.296 1154.49 270.376 1154.49 268.328V267.16ZM1154.74 267.16H1155.82V268.312C1155.82 270.184 1157.22 271.992 1159.32 272.728L1158.65 273.784C1156.3 272.936 1154.74 270.744 1154.74 268.312V267.16ZM1151.26 266.712H1158.98V267.784H1151.26V266.712ZM1165.48 273.384H1178.55V274.472H1165.48V273.384ZM1167.17 278.84H1177.11V279.928H1167.17V278.84ZM1167.17 275.736H1168.5V279.176H1167.17V275.736ZM1172.02 266.264C1175.11 266.264 1177.11 267.352 1177.11 269.16C1177.11 270.952 1175.11 272.04 1172.02 272.04C1168.92 272.04 1166.93 270.952 1166.93 269.16C1166.93 267.352 1168.92 266.264 1172.02 266.264ZM1172.02 267.352C1169.75 267.352 1168.29 268.024 1168.29 269.16C1168.29 270.296 1169.75 270.968 1172.02 270.968C1174.29 270.968 1175.75 270.296 1175.75 269.16C1175.75 268.024 1174.29 267.352 1172.02 267.352ZM1191.09 265.784H1192.36V274.936H1191.09V265.784ZM1188.74 269.704H1191.48V270.808H1188.74V269.704ZM1188.01 266.072H1189.25V274.424H1188.01V266.072ZM1180.1 267.512H1187.43V268.568H1180.1V267.512ZM1183.78 269.304C1185.59 269.304 1186.85 270.296 1186.85 271.784C1186.85 273.288 1185.59 274.264 1183.78 274.264C1181.96 274.264 1180.69 273.288 1180.69 271.784C1180.69 270.296 1181.96 269.304 1183.78 269.304ZM1183.78 270.296C1182.65 270.296 1181.88 270.888 1181.88 271.784C1181.88 272.696 1182.65 273.272 1183.78 273.272C1184.9 273.272 1185.67 272.696 1185.67 271.784C1185.67 270.888 1184.9 270.296 1183.78 270.296ZM1183.13 265.896H1184.42V268.104H1183.13V265.896ZM1187.62 275.192C1190.63 275.192 1192.44 276.088 1192.44 277.704C1192.44 279.304 1190.63 280.216 1187.62 280.216C1184.58 280.216 1182.79 279.304 1182.79 277.704C1182.79 276.088 1184.58 275.192 1187.62 275.192ZM1187.62 276.216C1185.4 276.216 1184.1 276.744 1184.1 277.704C1184.1 278.664 1185.4 279.208 1187.62 279.208C1189.81 279.208 1191.13 278.664 1191.13 277.704C1191.13 276.744 1189.81 276.216 1187.62 276.216ZM1205.86 265.784H1207.14V280.248H1205.86V265.784ZM1200.6 270.968H1203.36V272.072H1200.6V270.968ZM1202.96 266.12H1204.21V279.512H1202.96V266.12ZM1197.81 268.024H1198.84V269.864C1198.84 273.032 1197.62 276.024 1195.49 277.368L1194.68 276.376C1196.69 275.16 1197.81 272.52 1197.81 269.864V268.024ZM1198.08 268.024H1199.11V269.864C1199.11 272.376 1200.2 274.888 1202.18 276.04L1201.36 277.016C1199.25 275.736 1198.08 272.888 1198.08 269.864V268.024ZM1195.08 267.464H1201.68V268.568H1195.08V267.464ZM1213.71 267.304H1222.26V268.392H1213.71V267.304ZM1217.98 269.128C1220.03 269.128 1221.44 270.152 1221.44 271.752C1221.44 273.336 1220.03 274.344 1217.98 274.344C1215.9 274.344 1214.51 273.336 1214.51 271.752C1214.51 270.152 1215.9 269.128 1217.98 269.128ZM1217.98 270.168C1216.66 270.168 1215.78 270.776 1215.78 271.752C1215.78 272.696 1216.66 273.32 1217.98 273.32C1219.28 273.32 1220.18 272.696 1220.18 271.752C1220.18 270.776 1219.28 270.168 1217.98 270.168ZM1223.57 265.784H1224.9V274.824H1223.57V265.784ZM1224.53 269.768H1227.04V270.872H1224.53V269.768ZM1215.5 275.608H1224.9V280.248H1223.57V276.696H1215.5V275.608ZM1217.31 265.704H1218.64V267.912H1217.31V265.704ZM1236.08 269.4H1239.29V270.504H1236.08V269.4ZM1238.93 265.784H1240.25V274.248H1238.93V265.784ZM1230.88 274.952H1240.25V280.056H1230.88V274.952ZM1238.96 276.008H1232.17V278.984H1238.96V276.008ZM1232.05 267.16H1233.13V268.328C1233.13 270.968 1231.5 273.224 1229.09 274.12L1228.4 273.064C1230.56 272.296 1232.05 270.376 1232.05 268.328V267.16ZM1232.3 267.16H1233.37V268.312C1233.37 270.184 1234.78 271.992 1236.88 272.728L1236.21 273.784C1233.85 272.936 1232.3 270.744 1232.3 268.312V267.16ZM1228.81 266.712H1236.54V267.784H1228.81V266.712ZM1249.58 266.696C1252.59 266.696 1254.83 268.296 1254.83 270.696C1254.83 273.112 1252.59 274.696 1249.58 274.696C1246.57 274.696 1244.32 273.112 1244.32 270.696C1244.32 268.296 1246.57 266.696 1249.58 266.696ZM1249.58 267.784C1247.29 267.784 1245.6 268.952 1245.6 270.696C1245.6 272.424 1247.29 273.608 1249.58 273.608C1251.87 273.608 1253.56 272.424 1253.56 270.696C1253.56 268.952 1251.87 267.784 1249.58 267.784ZM1243.05 277.224H1256.16V278.344H1243.05V277.224ZM1257.74 277.368H1270.84V278.472H1257.74V277.368ZM1263.6 274.264H1264.92V277.832H1263.6V274.264ZM1259.32 266.856H1269.23V271.24H1260.68V274.136H1259.37V270.168H1267.92V267.928H1259.32V266.856ZM1259.37 273.576H1269.56V274.664H1259.37V273.576ZM1287.06 265.8H1288.41V276.36H1287.06V265.8ZM1279.11 278.84H1288.84V279.928H1279.11V278.84ZM1279.11 275.272H1280.42V279.208H1279.11V275.272ZM1280.65 266.792C1282.81 266.792 1284.41 268.264 1284.41 270.36C1284.41 272.44 1282.81 273.928 1280.65 273.928C1278.49 273.928 1276.87 272.44 1276.87 270.36C1276.87 268.264 1278.49 266.792 1280.65 266.792ZM1280.65 267.944C1279.24 267.944 1278.17 268.936 1278.17 270.36C1278.17 271.768 1279.24 272.76 1280.65 272.76C1282.05 272.76 1283.13 271.768 1283.13 270.36C1283.13 268.936 1282.05 267.944 1280.65 267.944ZM1298.95 269.528H1302.21V270.632H1298.95V269.528ZM1301.8 265.784H1303.13V274.408H1301.8V265.784ZM1298.37 274.84C1301.35 274.84 1303.19 275.848 1303.19 277.544C1303.19 279.256 1301.35 280.232 1298.37 280.232C1295.38 280.232 1293.54 279.256 1293.54 277.544C1293.54 275.848 1295.38 274.84 1298.37 274.84ZM1298.37 275.88C1296.2 275.88 1294.87 276.488 1294.87 277.544C1294.87 278.584 1296.2 279.192 1298.37 279.192C1300.55 279.192 1301.88 278.584 1301.88 277.544C1301.88 276.488 1300.55 275.88 1298.37 275.88ZM1294.92 267.24H1296.01V268.408C1296.01 271.08 1294.37 273.368 1291.97 274.264L1291.29 273.208C1293.43 272.424 1294.92 270.488 1294.92 268.408V267.24ZM1295.17 267.24H1296.25V268.408C1296.25 270.28 1297.65 272.072 1299.75 272.808L1299.08 273.864C1296.73 273.016 1295.17 270.84 1295.17 268.408V267.24ZM1291.69 266.84H1299.41V267.928H1291.69V266.84ZM1319.94 265.784H1321.26V274.248H1319.94V265.784ZM1320.9 269.256H1323.41V270.376H1320.9V269.256ZM1310.64 266.584H1311.95V268.792H1316.03V266.584H1317.33V273.336H1310.64V266.584ZM1311.95 269.848V272.264H1316.03V269.848H1311.95ZM1312.22 275.032H1321.38V276.104H1313.55V279.736H1312.22V275.032ZM1312.22 278.968H1321.66V280.056H1312.22V278.968ZM1331.26 266.024C1334.45 266.024 1336.35 266.92 1336.35 268.536C1336.35 270.152 1334.45 271.048 1331.26 271.048C1328.06 271.048 1326.17 270.152 1326.17 268.536C1326.17 266.92 1328.06 266.024 1331.26 266.024ZM1331.26 267.032C1328.89 267.032 1327.53 267.576 1327.53 268.536C1327.53 269.496 1328.89 270.04 1331.26 270.04C1333.61 270.04 1334.97 269.496 1334.97 268.536C1334.97 267.576 1333.61 267.032 1331.26 267.032ZM1324.72 272.008H1337.79V273.08H1324.72V272.008ZM1326.3 274.312H1336.13V277.576H1327.65V279.336H1326.33V276.616H1334.81V275.336H1326.3V274.312ZM1326.33 279.048H1336.56V280.088H1326.33V279.048ZM1349.39 266.296H1350.55V267.096C1350.55 269.864 1347.74 271.848 1344.73 272.36L1344.2 271.288C1346.84 270.888 1349.39 269.16 1349.39 267.096V266.296ZM1349.63 266.296H1350.78V267.096C1350.78 269.112 1353.35 270.888 1355.96 271.288L1355.43 272.36C1352.46 271.848 1349.63 269.832 1349.63 267.096V266.296ZM1349.39 274.744H1350.7V280.248H1349.39V274.744ZM1343.55 273.928H1356.62V275.032H1343.55V273.928ZM1365.96 274.68H1366.98V275.464C1366.98 277.352 1365.8 279.256 1363.72 280.056L1363.04 279.064C1364.87 278.408 1365.96 276.856 1365.96 275.464V274.68ZM1366.24 274.68H1367.24V275.464C1367.24 276.92 1368.1 278.472 1369.83 279.176L1369.27 280.184C1367.19 279.368 1366.24 277.384 1366.24 275.464V274.68ZM1371.3 274.68H1372.29V275.464C1372.29 277.16 1371.33 279.304 1369.27 280.184L1368.71 279.176C1370.42 278.392 1371.3 276.712 1371.3 275.464V274.68ZM1371.57 274.68H1372.6V275.464C1372.6 276.952 1373.67 278.44 1375.51 279.064L1374.84 280.056C1372.72 279.288 1371.57 277.464 1371.57 275.464V274.68ZM1372.87 265.8H1374.21V274.056H1372.87V265.8ZM1366.45 266.632C1368.64 266.632 1370.21 268.008 1370.21 270.008C1370.21 272.008 1368.64 273.368 1366.45 273.368C1364.26 273.368 1362.68 272.008 1362.68 270.008C1362.68 268.008 1364.26 266.632 1366.45 266.632ZM1366.45 267.736C1365.01 267.736 1363.97 268.664 1363.97 270.008C1363.97 271.352 1365.01 272.264 1366.45 272.264C1367.89 272.264 1368.93 271.352 1368.93 270.008C1368.93 268.664 1367.89 267.736 1366.45 267.736ZM1378.69 274.456H1380V276.136H1387.08V274.456H1388.4V280.056H1378.69V274.456ZM1380 277.16V278.984H1387.08V277.16H1380ZM1377.03 272.376H1390.1V273.448H1377.03V272.376ZM1382.9 265.944H1384.04V266.584C1384.04 269.096 1381.24 270.904 1378.26 271.352L1377.78 270.312C1380.39 269.96 1382.9 268.408 1382.9 266.584V265.944ZM1383.11 265.944H1384.24V266.584C1384.24 268.376 1386.79 269.96 1389.36 270.312L1388.87 271.352C1385.92 270.904 1383.11 269.064 1383.11 266.584V265.944ZM1402.24 265.784H1403.57V280.248H1402.24V265.784ZM1392.64 267.192H1393.95V276.152H1392.64V267.192ZM1392.64 275.368H1393.83C1396.02 275.368 1398.31 275.208 1400.75 274.696L1400.91 275.832C1398.4 276.344 1396.11 276.52 1393.83 276.52H1392.64V275.368ZM1416.19 265.768H1417.54V280.264H1416.19V265.768ZM1417.22 271.48H1419.91V272.6H1417.22V271.48ZM1407.03 275.544H1408.16C1410.83 275.544 1412.71 275.448 1414.87 275.048L1415.01 276.168C1412.79 276.584 1410.88 276.664 1408.16 276.664H1407.03V275.544ZM1407.03 267.176H1413.75V268.264H1408.34V276.04H1407.03V267.176ZM1421.39 278.056C1421.39 277.64 1421.5 277.347 1421.71 277.176C1421.93 277.005 1422.18 276.92 1422.48 276.92C1422.79 276.92 1423.05 277.005 1423.26 277.176C1423.48 277.347 1423.58 277.64 1423.58 278.056C1423.58 278.472 1423.48 278.771 1423.26 278.952C1423.05 279.133 1422.79 279.224 1422.48 279.224C1422.18 279.224 1421.93 279.133 1421.71 278.952C1421.5 278.771 1421.39 278.472 1421.39 278.056Z" fill="#F2F2F2"/>
<path d="M1145.89 215.576L1145.57 219.704H1144.27L1143.95 215.576H1145.89ZM1156.08 215.992H1159.03V217.672H1156.08V215.992ZM1156.08 218.776H1159.03V220.472H1156.08V218.776ZM1147.91 214.584H1155.73V216.28H1147.91V214.584ZM1147.75 222.12L1147.54 220.392C1149.92 220.392 1153.25 220.36 1155.92 220.056L1156.03 221.608C1153.28 222.072 1150.1 222.12 1147.75 222.12ZM1149.07 216.008H1151.12V221.016H1149.07V216.008ZM1152.51 216.008H1154.55V221.016H1152.51V216.008ZM1157.81 213.608H1159.94V222.664H1157.81V213.608ZM1154.91 222.888C1158.07 222.888 1159.99 223.896 1159.99 225.672C1159.99 227.416 1158.07 228.424 1154.91 228.424C1151.76 228.424 1149.84 227.416 1149.84 225.672C1149.84 223.896 1151.76 222.888 1154.91 222.888ZM1154.91 224.504C1152.98 224.504 1151.97 224.872 1151.97 225.672C1151.97 226.44 1152.98 226.824 1154.91 226.824C1156.87 226.824 1157.87 226.44 1157.87 225.672C1157.87 224.872 1156.87 224.504 1154.91 224.504ZM1171.7 213.592H1173.84V228.408H1171.7V213.592ZM1173.28 219.256H1175.89V221H1173.28V219.256ZM1167.81 215.128H1169.89C1169.89 219.576 1168.19 223.384 1163.26 225.864L1162.08 224.248C1165.97 222.232 1167.81 219.512 1167.81 215.496V215.128ZM1162.9 215.128H1168.9V216.84H1162.9V215.128ZM1187.09 213.624H1189.23V224.264H1187.09V213.624ZM1179.36 226.472H1189.6V228.168H1179.36V226.472ZM1179.36 223.192H1181.49V227.16H1179.36V223.192ZM1181.17 214.552C1183.44 214.552 1185.18 216.12 1185.18 218.312C1185.18 220.488 1183.44 222.072 1181.17 222.072C1178.9 222.072 1177.14 220.488 1177.14 218.312C1177.14 216.12 1178.9 214.552 1181.17 214.552ZM1181.17 216.392C1180.06 216.392 1179.22 217.096 1179.22 218.312C1179.22 219.512 1180.06 220.216 1181.17 220.216C1182.26 220.216 1183.1 219.512 1183.1 218.312C1183.1 217.096 1182.26 216.392 1181.17 216.392ZM1199.63 217.192H1202.45V218.92H1199.63V217.192ZM1201.87 213.608H1204V222.408H1201.87V213.608ZM1198.97 222.728C1202.11 222.728 1204.05 223.8 1204.05 225.592C1204.05 227.4 1202.11 228.44 1198.97 228.44C1195.84 228.44 1193.9 227.4 1193.9 225.592C1193.9 223.8 1195.84 222.728 1198.97 222.728ZM1198.97 224.344C1197.05 224.344 1196.03 224.744 1196.03 225.592C1196.03 226.424 1197.05 226.824 1198.97 226.824C1200.91 226.824 1201.93 226.424 1201.93 225.592C1201.93 224.744 1200.91 224.344 1198.97 224.344ZM1195.02 215.096H1196.75V216.024C1196.75 218.856 1195.44 221.448 1192.61 222.408L1191.52 220.728C1193.97 219.896 1195.02 217.928 1195.02 216.024V215.096ZM1195.47 215.096H1197.18V216.024C1197.18 217.768 1198.19 219.576 1200.53 220.36L1199.49 222.04C1196.73 221.128 1195.47 218.664 1195.47 216.024V215.096ZM1192.09 214.504H1200.06V216.2H1192.09V214.504ZM1210.41 214.904H1219.13V216.584H1210.41V214.904ZM1214.78 217.048C1216.91 217.048 1218.41 218.152 1218.41 219.784C1218.41 221.416 1216.91 222.504 1214.78 222.504C1212.63 222.504 1211.13 221.416 1211.13 219.784C1211.13 218.152 1212.63 217.048 1214.78 217.048ZM1214.78 218.648C1213.82 218.648 1213.18 219.032 1213.18 219.784C1213.18 220.52 1213.82 220.904 1214.78 220.904C1215.72 220.904 1216.38 220.52 1216.38 219.784C1216.38 219.032 1215.72 218.648 1214.78 218.648ZM1219.95 213.608H1222.07V222.904H1219.95V213.608ZM1221.48 217.432H1224.04V219.16H1221.48V217.432ZM1212.19 223.512H1222.07V228.424H1219.95V225.208H1212.19V223.512ZM1213.71 213.528H1215.83V215.864H1213.71V213.528ZM1226.66 222.488H1228.76V223.736H1234.7V222.488H1236.81V228.264H1226.66V222.488ZM1228.76 225.32V226.6H1234.7V225.32H1228.76ZM1225.1 220.072H1238.49V221.752H1225.1V220.072ZM1230.71 213.768H1232.54V214.216C1232.54 216.792 1230.33 218.92 1226.5 219.416L1225.75 217.768C1229.1 217.368 1230.71 215.72 1230.71 214.216V213.768ZM1231.06 213.768H1232.89V214.216C1232.89 215.704 1234.5 217.368 1237.83 217.768L1237.08 219.416C1233.26 218.92 1231.06 216.776 1231.06 214.216V213.768ZM1240.41 215.08H1246.79V216.76H1240.41V215.08ZM1242.31 219.32H1244.41V224.344H1242.31V219.32ZM1245.94 215.08H1248.04V216.28C1248.04 217.72 1248.04 219.512 1247.64 221.976L1245.56 221.784C1245.94 219.416 1245.94 217.704 1245.94 216.28V215.08ZM1249.3 213.608H1251.43V228.424H1249.3V213.608ZM1250.81 219.56H1253.41V221.32H1250.81V219.56ZM1239.85 225.432L1239.65 223.72C1242.26 223.72 1245.72 223.672 1248.63 223.304L1248.74 224.856C1245.75 225.368 1242.42 225.432 1239.85 225.432ZM1262.5 217.192H1265.32V218.92H1262.5V217.192ZM1264.74 213.608H1266.87V222.408H1264.74V213.608ZM1261.85 222.728C1264.98 222.728 1266.92 223.8 1266.92 225.592C1266.92 227.4 1264.98 228.44 1261.85 228.44C1258.71 228.44 1256.77 227.4 1256.77 225.592C1256.77 223.8 1258.71 222.728 1261.85 222.728ZM1261.85 224.344C1259.93 224.344 1258.9 224.744 1258.9 225.592C1258.9 226.424 1259.93 226.824 1261.85 226.824C1263.78 226.824 1264.81 226.424 1264.81 225.592C1264.81 224.744 1263.78 224.344 1261.85 224.344ZM1257.89 215.096H1259.62V216.024C1259.62 218.856 1258.31 221.448 1255.48 222.408L1254.39 220.728C1256.84 219.896 1257.89 217.928 1257.89 216.024V215.096ZM1258.34 215.096H1260.05V216.024C1260.05 217.768 1261.06 219.576 1263.4 220.36L1262.36 222.04C1259.61 221.128 1258.34 218.664 1258.34 216.024V215.096ZM1254.97 214.504H1262.93V216.2H1254.97V214.504ZM1271.49 215.576L1271.17 219.704H1269.88L1269.56 215.576H1271.49Z" fill="#39D98A"/>
<path d="M1482.21 69.3075C1463.83 71.3387 1441.46 73.9721 1426.56 60.3497C1423.63 57.674 1421.31 54.4926 1419.83 50.9851C1422.05 51.6026 1424.38 52.0298 1426.85 52.2017C1437.27 52.937 1448.37 47.2372 1451.02 36.5622C1453.68 25.8164 1445.56 15.8769 1434.9 14.7276C1424.52 13.6099 1414.82 20.3261 1410.81 29.6767C1410.3 30.8517 1409.88 32.0541 1409.52 33.275C1398.12 21.8364 1394.16 4.70467 1387.43 -9.55344C1383.06 -18.8148 1377.21 -27.135 1368.95 -33.3256C1360.23 -39.867 1349.7 -43.3897 1338.84 -43.88C1332.5 -44.1694 1332.63 -34.3012 1338.97 -34.0118C1350.02 -33.5088 1360.62 -28.7818 1368.34 -20.8281C1375.85 -13.0857 1379.92 -2.73926 1383.84 7.12872C1389.24 20.7221 1396.4 36.4684 1408.37 45.3237C1408.77 49.8316 1410.1 54.2714 1412.34 58.2567C1426.25 82.9885 1458.11 81.8603 1482.35 79.1795C1488.6 78.486 1488.55 68.6098 1482.22 69.3112L1482.21 69.3075ZM1433.27 24.4459C1442.07 24.9495 1444.29 35.1963 1437.24 40.0073C1431.55 43.897 1424.16 42.7509 1418.18 39.7376C1418.2 39.5022 1418.22 39.2737 1418.25 39.0472C1419.33 31.6094 1424.99 23.9744 1433.27 24.4529L1433.27 24.4459Z" fill="white" stroke="#291101" stroke-width="1.2" stroke-linecap="round" stroke-linejoin="round"/>
</g>
<defs>
<linearGradient id="paint0_linear_1164_1910" x1="709.137" y1="247.509" x2="1174.14" y2="1052.91" gradientUnits="userSpaceOnUse">
<stop stop-color="#20E684"/>
<stop offset="0.46" stop-color="#1FA9B5"/>
<stop offset="1" stop-color="#3475ED"/>
</linearGradient>
<linearGradient id="paint1_linear_1164_1910" x1="2205.17" y1="-429.755" x2="1657.85" y2="74.2142" gradientUnits="userSpaceOnUse">
<stop stop-color="#20E684"/>
<stop offset="0.46" stop-color="#1FA9B5"/>
<stop offset="1" stop-color="#3475ED"/>
</linearGradient>
<clipPath id="clip0_1164_1910">
<rect width="2560" height="400" fill="white"/>
</clipPath>
<clipPath id="clip1_1164_1910">
<rect width="75.798" height="66.933" fill="white" transform="matrix(-0.989856 -0.142077 -0.142077 0.989856 652.865 132.066)"/>
</clipPath>
<clipPath id="clip2_1164_1910">
<rect width="216.939" height="182.7" fill="white" transform="matrix(-0.172585 -0.984995 -0.984995 0.172585 1772.92 374.113)"/>
</clipPath>
<clipPath id="clip3_1164_1910">
<rect width="149.85" height="159.3" fill="white" transform="matrix(-0.888845 -0.458209 -0.458209 0.888845 838.641 176.344)"/>
</clipPath>
<clipPath id="clip4_1164_1910">
<rect width="84.01" height="35.16" fill="white" transform="translate(897 86.8672) rotate(-30.6813)"/>
</clipPath>
<clipPath id="clip5_1164_1910">
<rect width="89.4191" height="64.7134" fill="white" transform="translate(1806.21 76) rotate(13.5915)"/>
</clipPath>
</defs>
</svg>
