<svg width="40" height="40" viewBox="0 0 40 40" fill="none" xmlns="http://www.w3.org/2000/svg">
<g id="Frame 1000014628">
<path id="Ellipse 1155 (Stroke)" fill-rule="evenodd" clip-rule="evenodd" d="M19.9996 5.60156C12.0467 5.60156 5.59961 12.0487 5.59961 20.0016C5.59961 27.9545 12.0467 34.4016 19.9996 34.4016C27.2695 34.4016 33.2841 29.0124 34.2607 22.0117C34.4133 20.9177 35.4238 20.1546 36.5178 20.3072C37.6118 20.4598 38.3749 21.4704 38.2223 22.5644C36.9739 31.514 29.2928 38.4016 19.9996 38.4016C9.83757 38.4016 1.59961 30.1636 1.59961 20.0016C1.59961 9.83952 9.83757 1.60156 19.9996 1.60156C27.9343 1.60156 34.6912 6.6231 37.2752 13.6551C37.7392 14.9177 37.218 16.2644 36.1635 16.9431L28.69 21.7528L28.682 21.758L18.1262 28.6234C16.2636 29.8348 13.7996 28.4981 13.7996 26.2762V13.8762C13.7996 11.6542 16.2636 10.3175 18.1262 11.529L27.6053 17.6941L33.1506 14.1253C30.9013 9.09923 25.8566 5.60156 19.9996 5.60156ZM23.9314 20.0762L17.7996 16.0881V24.0642L23.9314 20.0762Z" fill="url(#paint0_linear_1284_6195)"/>
</g>
<defs>
<linearGradient id="paint0_linear_1284_6195" x1="5.16329" y1="20.0016" x2="30.9641" y2="20.0016" gradientUnits="userSpaceOnUse">
<stop stop-color="#20DD8C"/>
<stop offset="1" stop-color="#3478EB"/>
</linearGradient>
</defs>
</svg>
